<?xml version="1.0" standalone="no"?><!DOCTYPE svg PUBLIC "-//W3C//DTD SVG 1.1//EN" "http://www.w3.org/Graphics/SVG/1.1/DTD/svg11.dtd" ><svg xmlns="http://www.w3.org/2000/svg"><metadata></metadata><defs><font id="Founder:FZDaBiaoSong-B06S	Regular" horiz-adv-x="256"><font-face font-family="FZDaBiaoSong-B06S" font-weight="400" font-stretch="normal" units-per-em="256" panose-1="2 0 0 0 0 0 0 0 0 0" ascent="222" descent="-68" x-height="0" bbox="0 -42 263 218" underline-thickness="12" underline-position="-56" unicode-range="U+0000-9ab8" /><missing-glyph horiz-adv-x="256"  /><glyph glyph-name="" unicode=" ê" d="" /><glyph glyph-name="" unicode="-" d="M143 78 l-115 0 l0 22 l115 0 l0 -22 Z" /><glyph glyph-name="" unicode="0" d="M66 188 q55 -2 56 -98 q-2 -95 -56 -99 q-58 0 -58 97 q2 97 58 100 ZM66 179 q-25 0 -25 -89 q0 -93 25 -91 q23 -3 22 91 q0 91 -22 89 Z" /><glyph glyph-name="" unicode="2" d="M112 55 l9 -2 l-7 -58 l-107 0 q3 54 51 93 q30 25 29 53 q0 36 -24 37 q-20 -1 -22 -21 q14 -26 -14 -32 q-17 1 -18 18 q4 42 56 45 q53 -3 55 -48 q1 -41 -48 -66 q-35 -17 -47 -50 l62 0 q18 -2 25 31 Z" /><glyph glyph-name="" unicode="6" d="M72 178 q-27 -1 -30 -80 q13 18 31 17 q45 -6 49 -59 q-2 -63 -56 -65 q-56 -1 -56 91 q2 102 62 106 q42 -2 46 -31 q-2 -18 -19 -19 q-25 4 -12 29 q-3 11 -15 11 ZM65 102 q-21 -3 -23 -43 q0 -60 24 -60 q22 2 23 55 q-2 49 -24 48 Z" /><glyph glyph-name="" unicode="7" d="M15 120 l-8 2 l7 62 l106 0 l0 -18 q-50 -80 -49 -157 q0 -18 -18 -18 q-17 -1 -17 14 q0 45 66 150 l-62 0 q-17 1 -25 -35 Z" /><glyph glyph-name="" unicode="&lt;" d="M140 155 l0 -22 l-88 -43 l88 -45 l0 -22 l-116 60 l0 13 l116 59 Z" /><glyph glyph-name="" unicode="&gt;" d="M115 90 l-89 43 l0 22 l116 -59 l0 -13 l-116 -60 l0 22 l89 45 Z" /><glyph glyph-name="" unicode="b" d="M2 169 l0 7 l54 12 q-1 -22 -1 -55 l0 -22 q12 19 33 19 q48 -5 51 -69 q0 -68 -59 -70 q-23 0 -38 21 l-16 -19 l-8 3 l3 34 l0 114 q1 25 -19 25 ZM80 116 q-26 -1 -26 -59 q0 -55 26 -56 q26 2 26 59 q0 56 -26 56 Z" /><glyph glyph-name="" unicode="r" d="M3 121 l50 10 l0 -23 q13 24 28 23 q19 -1 20 -20 q0 -19 -18 -20 q-15 1 -16 16 q-14 -6 -14 -38 l0 -44 q-1 -22 17 -22 l0 -8 l-68 0 l0 8 q18 -1 17 21 l0 68 q2 23 -16 22 l0 7 Z" /><glyph glyph-name="" unicode="&#x201c;" d="M226 128 l-1 0 q-20 3 -22 24 l0 1 q0 14 9 27 q11 17 29 23 l0 -3 q-21 -16 -24 -35 q26 -1 26 -20 l0 -1 q0 -16 -17 -16 ZM164 128 l-1 0 q-20 3 -22 24 l0 1 q0 14 9 27 q11 17 29 23 l0 -3 q-21 -16 -24 -35 q26 -1 26 -20 l0 -1 q0 -16 -17 -16 Z" /><glyph glyph-name="" unicode="&#x201d;" d="M114 178 l0 -4 q-1 -12 -8 -24 q-11 -17 -29 -22 l0 3 q18 10 24 35 q-11 0 -16 3 q-10 5 -11 15 l0 3 q2 13 17 16 q2 0 3 0 q12 -2 17 -10 q3 -5 3 -15 ZM55 178 l0 -5 q-1 -10 -8 -24 q-11 -16 -29 -22 l0 3 q17 10 24 35 q-9 0 -16 3 q-10 7 -11 16 l0 2 q2 15 17 16 q1 0 2 0 q12 -1 17 -9 q4 -7 4 -15 Z" /><glyph glyph-name="" unicode="&#x4e07;" d="M215 208 q5 1 27 -16 q7 -5 5 -8 q-3 -2 -14 -2 l-125 0 q34 -6 22 -17 q-4 -3 -4 -5 q-2 -16 -2 -32 l46 0 q1 0 4 6 q7 9 9 9 q27 -5 33 -21 q-1 -3 -6 -4 q-3 -2 -3 -3 q-8 -87 -15 -104 q-6 -20 -30 -23 q-23 -5 -25 7 q0 4 -1 5 q-5 10 -20 15 q-5 2 -5 3 q0 1 11 1 q35 0 42 13 q7 14 11 91 l-52 0 q-5 -65 -28 -89 q-31 -37 -81 -51 q-1 1 7 5 q39 26 52 51 q21 35 21 143 l-77 0 q-5 0 -7 2 q-1 2 4 2 l185 0 q2 0 8 11 q7 11 8 11 Z" /><glyph glyph-name="" unicode="&#x4e0a;" d="M107 199 q-1 6 13 5 q34 -3 25 -12 q-4 -4 -4 -6 l0 -65 l37 0 q1 0 7 9 q9 15 13 15 q6 -2 24 -21 q3 -4 2 -6 q-1 -2 -6 -2 l-77 0 l0 -116 l58 0 q2 0 9 10 q7 11 10 11 q5 -1 23 -18 q4 -4 3 -6 q-1 -1 -8 -1 l-212 0 q-4 -1 -6 1 q-3 3 1 3 l88 0 l0 199 Z" /><glyph glyph-name="" unicode="&#x4e16;" d="M115 198 q24 -2 23 -8 q0 -2 -2 -4 q-3 -3 -4 -6 l0 -57 l30 0 l0 65 q-2 14 9 12 q28 -3 29 -10 q0 -1 -2 -4 q-5 -5 -5 -9 l0 -54 l12 0 q0 1 1 2 q8 18 14 18 q5 0 18 -16 q4 -4 4 -7 q0 -2 -4 -2 l-45 0 l0 -84 q1 -11 -20 -12 q-12 -2 -11 6 l0 14 l-30 0 l0 -13 q2 -12 -19 -12 q-11 -2 -10 6 l0 95 l-26 0 l0 -124 l116 0 q11 18 15 19 q6 0 21 -15 q4 -5 3 -7 q0 -2 -5 -2 l-149 0 q-1 0 -5 -4 q-4 -6 -7 -8 q-15 1 -28 15 q0 2 4 7 q4 6 4 8 l0 111 l-32 0 q-4 0 -5 3 q-1 2 2 2 l35 0 l0 48 q-1 13 9 11 q23 -2 27 -8 q0 -2 -2 -6 q-3 -3 -3 -7 l0 -38 l26 0 l0 65 q-1 13 12 10 ZM132 118 l0 -72 l30 0 l0 72 l-30 0 Z" /><glyph glyph-name="" unicode="&#x4e1c;" d="M112 211 q40 -7 26 -18 q-4 -3 -5 -4 q-5 -6 -14 -24 l71 0 q0 0 3 5 q10 19 14 20 q10 0 30 -22 q3 -4 2 -6 q-1 -1 -7 -1 l-115 0 l-40 -69 l43 0 l0 36 q-1 14 8 12 q36 -1 26 -12 q-3 -4 -3 -5 l0 -31 l27 0 q1 0 6 8 q10 16 14 16 q9 -2 25 -21 q3 -4 2 -6 q0 -1 -6 -1 l-68 0 l0 -92 q0 -25 -37 -25 q-3 0 -6 7 q-5 15 -18 20 q-9 3 3 3 q17 0 22 2 q6 2 5 10 l0 75 l-38 0 q-3 0 -9 -6 q-4 -4 -6 -4 q-4 -1 -19 12 q-3 3 -4 4 q-6 5 6 12 q3 2 4 3 q9 12 29 52 l-54 0 q-5 0 -6 2 q-1 2 3 2 l59 0 q12 27 15 36 q4 14 12 10 ZM70 58 q3 13 12 9 q45 -13 25 -18 q-6 -3 -8 -5 q-62 -57 -78 -54 q33 29 49 68 ZM165 63 q-10 13 47 -15 q24 -16 22 -40 q-16 -23 -31 -4 q-1 2 -3 8 q-5 27 -35 51 Z" /><glyph glyph-name="" unicode="&#x4e2d;" d="M124 205 q31 -2 20 -11 q-2 -2 -2 -3 l0 -46 l40 0 q1 0 5 7 q6 11 9 12 q27 -7 36 -26 q-1 -2 -5 -5 q-3 -1 -3 -2 l0 -63 q2 -18 -22 -20 q-12 -3 -12 11 l0 13 l-48 0 l0 -87 q1 -15 -18 -17 q-17 -4 -15 13 l0 91 l-48 0 l0 -11 q1 -15 -15 -16 q-18 -5 -17 13 l0 89 q0 8 3 10 q3 2 9 -2 q2 -1 7 -4 q12 -6 14 -6 l47 0 l0 48 q-4 16 15 12 ZM142 141 l0 -65 l48 0 l0 65 l-48 0 ZM72 141 q-12 1 -11 -7 l0 -58 l48 0 l0 65 l-37 0 Z" /><glyph glyph-name="" unicode="&#x4e3e;" d="M172 204 q26 -2 43 -15 q-1 -3 -9 -6 q-6 -2 -8 -4 q-4 -4 -17 -20 q-17 -21 -23 -27 l37 0 q3 0 9 10 q8 14 14 10 q1 -1 3 -2 q14 -10 18 -15 q4 -4 3 -6 q0 -2 -4 -2 l-73 0 q20 -34 77 -45 q6 -1 -1 -7 q-9 -8 -13 -13 q-1 -2 -3 -7 q-3 -8 -6 -5 q-17 8 -26 16 l-49 0 l0 -36 l38 0 q3 0 8 9 q9 14 15 10 q2 -2 8 -7 q10 -7 14 -11 q2 -2 1 -4 q-2 -1 -7 -1 l-77 0 l0 -41 q1 -17 -21 -16 q-11 -1 -10 9 l0 48 l-73 0 q-4 0 -5 2 q-1 2 3 2 l75 0 l0 36 l-48 0 q-5 0 -7 4 q-9 -7 -34 -19 q-1 0 -3 -1 q-12 -6 3 6 q38 34 51 71 l-54 0 q-4 0 -5 2 q-2 2 1 3 l131 0 q13 32 20 61 q2 10 4 11 ZM110 201 q29 -10 35 -30 q4 -25 -20 -27 q-13 0 -12 18 q0 23 -10 36 q0 0 -1 1 q-9 7 8 2 ZM59 192 q30 -7 36 -23 q4 -23 -19 -28 q-14 0 -13 18 q1 20 -8 29 q-5 4 -4 5 q1 1 8 -1 ZM116 127 q-5 -1 -12 -10 q-24 -31 -46 -46 l55 0 l0 35 q0 7 11 5 q24 -2 24 -6 q0 -2 -2 -3 q-2 -2 -2 -5 l0 -26 l8 0 q3 0 8 7 q8 11 16 5 q-15 26 -20 44 l-40 0 Z" /><glyph glyph-name="" unicode="&#x4e8b;" d="M119 208 q26 -1 27 -8 q1 -2 -4 -6 q-2 -1 -2 -2 l0 -13 l64 0 q1 0 5 7 q6 13 10 13 q6 2 23 -16 q3 -3 3 -5 q-1 -3 -5 -3 l-100 0 l0 -21 l33 0 q2 0 4 5 q4 5 7 6 q17 -2 31 -17 q0 -3 -3 -5 q-3 -3 -3 -5 l0 -26 q1 -7 -10 -8 q19 -9 20 -15 q0 -2 -6 -7 q-1 -1 -1 -1 l0 -15 q1 2 4 5 q9 13 12 12 q6 -2 17 -14 q6 -8 -1 -9 l-32 0 l0 -39 q0 -11 -21 -11 q-9 0 -9 6 l0 12 l-42 0 l0 -31 q-3 -29 -41 -26 q-3 2 -5 8 q-2 10 -13 14 q-12 4 2 6 q27 2 27 11 l0 18 l-74 0 q-10 3 -5 5 l79 0 l0 27 l-93 0 q-3 0 -5 3 q-1 3 2 2 l96 0 l0 25 l-74 0 q-3 0 -5 2 q-1 2 2 2 l77 0 l0 21 l-38 0 l0 -5 q-2 -9 -21 -9 q-8 0 -8 8 l0 44 q0 1 0 4 q-2 8 9 4 q5 -1 19 -6 q2 -1 3 -1 l36 0 l0 21 l-93 0 q-4 0 -6 2 q-2 2 2 2 l97 0 l0 21 q-2 9 9 8 ZM80 149 q-9 1 -8 -9 l0 -20 l38 0 l0 29 l-30 0 ZM140 149 l0 -29 l38 0 l0 29 l-38 0 ZM178 115 l-38 0 l0 -21 l38 0 q1 0 4 5 q2 3 3 4 q-9 1 -7 7 l0 5 ZM140 90 l0 -25 l42 0 l0 25 l-42 0 ZM140 60 l0 -27 l42 0 l0 27 l-42 0 Z" /><glyph glyph-name="" unicode="&#x4ea7;" d="M110 204 q34 -2 37 -16 q6 -16 -9 -25 l53 0 q2 0 7 9 q9 13 13 13 q5 0 22 -17 q5 -5 4 -7 q-1 -2 -7 -2 l-72 0 q39 -12 35 -18 q0 -1 -5 -3 q-6 -2 -9 -5 q-18 -18 -25 -29 l40 0 q2 0 8 9 q9 12 12 12 q8 -1 21 -16 q5 -6 5 -8 q0 -2 -6 -2 l-150 0 q-17 2 -17 -16 q-1 -38 -5 -52 q-8 -33 -42 -55 q-8 -6 -11 -6 q-2 0 4 6 q13 16 19 39 q5 19 4 72 q0 12 0 18 q0 9 2 9 q2 2 12 -1 q15 -5 23 -9 l21 0 q-7 4 -7 18 q0 24 -17 37 l-46 0 q-4 0 -5 2 q-1 2 3 2 l99 0 q-5 2 -6 13 q0 14 -6 21 q-1 1 -4 2 q-9 5 5 5 ZM83 159 q0 0 3 -1 q28 -13 32 -25 q5 -18 -11 -29 l35 0 q9 30 9 55 l-68 0 Z" /><glyph glyph-name="" unicode="&#x4eae;" d="M150 191 q1 -12 -8 -19 l55 0 q1 0 7 11 q7 13 9 13 q10 -2 25 -18 q4 -5 3 -8 q-1 -3 -8 -3 l-210 0 q-4 0 -5 3 q-1 2 2 2 l98 0 q-2 3 -1 10 q0 4 0 6 q-1 8 -10 15 q-3 2 -3 3 q42 3 46 -15 ZM168 161 q24 -7 32 -22 q0 -2 -5 -4 q-4 -2 -4 -3 l0 -26 q2 -8 -18 -11 q-13 -1 -13 6 l0 5 l-65 0 l0 -5 q1 -5 -18 -9 q-10 -1 -11 6 l0 49 q0 7 2 8 q2 1 9 -1 q7 -2 18 -6 q4 -1 6 -2 l55 0 q1 0 4 5 q5 9 8 10 ZM106 141 q-12 1 -11 -8 l0 -22 l65 0 l0 30 l-54 0 ZM212 97 q10 -1 27 -15 q12 -11 7 -15 q-3 -3 -11 -2 q-7 1 -11 0 q-12 -2 -23 -11 q-2 -1 -2 -1 q-1 1 2 15 q2 8 3 11 l-150 0 q5 -38 -25 -39 q-23 12 -3 27 q15 7 16 24 q1 5 2 5 q2 0 9 -13 l147 0 q1 0 4 5 q6 9 8 9 ZM150 69 q26 -5 32 -19 q-1 -2 -5 -5 q-4 -4 -4 -5 l0 -25 q-2 -17 23 -15 q19 1 23 12 q1 3 4 11 q5 15 6 15 q1 0 1 -5 q-1 -18 6 -28 q1 -1 3 -3 q15 -11 1 -21 q-16 -7 -38 -7 q-67 -5 -59 25 l0 52 l-19 0 q-9 1 -9 -10 q-2 -46 -50 -63 q-10 -4 -26 -7 q-18 -2 -20 0 q0 0 6 2 q17 6 26 12 q41 18 36 74 q-1 9 10 5 q15 -6 24 -8 l17 0 q1 0 4 5 q6 7 8 8 Z" /><glyph glyph-name="" unicode="&#x4efd;" d="M51 209 q27 -1 41 -13 q0 -1 -2 -2 q-7 -4 -13 -18 q-7 -16 -18 -39 q16 -6 9 -12 q-2 -2 -2 -3 l0 -47 q31 28 45 90 q5 18 4 30 q0 3 2 4 q5 2 22 -4 q15 -5 14 -9 q0 -1 -2 -2 q-6 -4 -10 -15 q-14 -37 -36 -66 q-1 -2 -2 -3 l63 0 q1 0 4 5 q3 6 5 6 q7 0 15 -4 q-25 47 -25 97 q0 6 13 1 q2 -1 3 -1 q9 -3 -1 -9 q-6 -3 -6 -4 q6 -50 60 -79 q6 -3 6 -4 q0 -1 -4 -3 q-6 -3 -10 -8 q-4 -4 -7 -10 q-3 -10 -14 1 q-3 -2 -4 -6 q1 -72 -5 -87 q-3 -17 -27 -18 q-15 -2 -15 7 q0 7 -4 10 q-5 5 -14 8 q-5 2 -4 3 q0 1 7 1 q29 -1 30 14 q2 22 2 75 l-17 0 q-7 -1 -9 -14 q-3 -53 -23 -75 q-25 -27 -57 -32 q0 0 3 3 q28 17 39 40 q10 21 10 78 l-20 0 q-1 -1 -5 -4 q-16 -14 -26 -20 l0 -82 q2 -9 -15 -12 q-15 -4 -13 7 l0 121 q-31 -32 -32 -28 q-1 0 4 8 q25 43 33 79 q4 19 5 36 q0 9 3 9 Z" /><glyph glyph-name="" unicode="&#x4f0a;" d="M54 203 q31 0 44 -11 q0 -2 -7 -5 q-5 -3 -5 -4 q-4 -12 -14 -33 q-5 -10 -6 -14 q11 -2 11 -5 q0 -2 -2 -5 q-3 -5 -3 -8 l0 -131 q0 -7 -10 -9 q-2 -1 -3 -1 q-15 -3 -15 6 l0 112 q-2 -2 -5 -5 q-13 -12 -20 -16 q-3 -3 -4 -3 q-1 1 1 4 q29 46 36 115 q1 12 2 13 ZM190 194 q29 -8 37 -17 q0 -4 -6 -9 q-2 -2 -2 -3 l0 -32 q7 9 10 9 q7 -1 19 -12 q3 -3 1 -4 q-1 -2 -6 -2 l-24 0 l0 -58 q4 -10 -21 -11 q-14 -3 -12 9 l0 7 l-34 0 q-3 -59 -75 -94 q-3 -1 -4 0 q-1 2 2 4 q44 29 47 90 l-27 0 q-4 0 -6 2 q-1 2 3 2 l30 0 l0 49 l-36 0 q-3 0 -4 2 q-2 2 1 2 l39 0 l0 48 l-24 0 q-4 0 -5 2 q-1 2 3 2 l84 0 q0 0 2 4 q5 9 8 10 ZM164 176 q-12 1 -11 -13 l0 -35 l33 0 l0 48 l-22 0 ZM153 124 l0 -49 l33 0 l0 49 l-33 0 Z" /><glyph glyph-name="" unicode="&#x4f1a;" d="M112 207 q42 -11 32 -18 q-3 -2 -3 -3 q22 -43 102 -60 q8 -1 5 -3 q-4 -2 -7 -4 q-8 -7 -15 -20 q-4 -12 -13 -7 q-56 26 -78 89 q-29 -40 -57 -58 q-52 -33 -68 -30 q64 40 90 103 q0 0 1 1 q4 13 11 10 ZM152 125 q8 1 25 -16 q4 -4 3 -5 q-1 -1 -9 -1 l-90 0 q-7 0 -10 2 q-2 2 4 2 l62 0 q1 0 4 6 q8 11 11 12 ZM196 85 q8 0 26 -15 q5 -4 5 -6 q0 -3 -4 -3 l-92 0 q14 -8 1 -12 q-5 -2 -6 -3 q-22 -19 -45 -41 l88 2 q-10 21 -25 31 q29 3 60 -24 q18 -21 3 -37 q-15 -11 -25 -1 q-2 2 -5 11 q-2 7 -4 10 q-78 -12 -116 -24 q-7 -2 -9 -2 q-4 0 -11 24 q-1 2 -1 2 q-2 9 10 10 q12 2 19 8 q16 17 26 46 l-54 0 q-12 1 -6 4 l148 0 q1 0 6 7 q9 13 11 13 Z" /><glyph glyph-name="" unicode="&#x4f4d;" d="M129 201 q34 0 47 -26 q5 -18 -12 -24 q-19 -4 -23 13 q-1 3 1 8 q5 15 -13 29 ZM177 113 q1 10 13 8 q39 -6 26 -19 q-4 -4 -5 -6 q-5 -10 -27 -60 q-12 -27 -17 -39 l32 0 q15 23 17 23 q7 0 28 -21 q3 -4 1 -5 q-2 -1 -10 -1 l-148 0 q-5 0 -6 2 q0 2 4 2 l75 0 q5 32 11 74 q4 30 6 42 ZM100 114 q22 -2 47 -50 q9 -24 -10 -40 q-23 -13 -23 15 q0 2 1 7 q8 31 -15 68 ZM92 143 l103 0 q1 0 7 10 q8 12 10 12 q8 -1 24 -16 q6 -6 6 -8 q-1 -2 -9 -2 l-138 0 q-4 0 -5 2 q-1 2 2 2 ZM70 204 q41 -9 26 -20 q-3 -3 -4 -4 q-11 -19 -18 -34 q-1 -4 -2 -5 q10 -3 10 -6 q1 -2 -2 -5 q-3 -4 -3 -5 l0 -133 q2 -13 -21 -15 q-10 -3 -9 13 l0 115 q-29 -36 -31 -26 q35 55 43 114 q1 16 11 11 Z" /><glyph glyph-name="" unicode="&#x4f53;" d="M140 206 q29 -1 32 -5 q0 -2 -3 -4 q-3 -3 -3 -6 l0 -41 l21 0 q1 0 5 7 q8 15 11 15 q7 -1 26 -19 q3 -3 3 -5 q-1 -2 -4 -2 l-53 0 q2 -55 63 -96 q6 -4 6 -5 q0 0 0 -1 q0 -1 -6 -5 q-1 -1 -2 -2 q-10 -8 -18 -17 q-1 -3 -2 -3 q-6 0 -15 11 l-35 0 l0 -44 q3 -17 -22 -16 q-10 -2 -9 8 l0 52 l-44 0 q-3 0 -5 2 q0 2 3 2 l46 0 l0 61 q-26 -40 -63 -65 l0 -43 q1 -12 -17 -15 q-12 -2 -12 6 l0 135 q-36 -44 -31 -30 q22 45 43 113 q4 21 17 12 q28 -12 18 -18 q-6 -4 -7 -6 q-11 -24 -27 -49 q24 -2 18 -11 q-2 -3 -2 -4 l0 -81 q40 45 52 109 l-41 0 q-4 0 -6 2 q-1 2 3 2 l55 0 l0 47 q0 9 5 9 ZM168 146 l-2 0 l0 -114 q0 0 4 6 q7 9 8 9 q6 0 14 -7 q-1 2 -3 7 q-17 35 -21 99 Z" /><glyph glyph-name="" unicode="&#x4fc4;" d="M61 209 q34 -10 22 -17 q-4 -2 -5 -4 q-2 -5 -6 -13 q-5 -12 -6 -13 q18 6 55 30 q1 1 2 2 q7 11 24 -12 q-1 14 0 18 q0 0 0 1 q-1 8 6 7 q35 -2 27 -12 q-3 -3 -3 -5 q33 -4 42 -16 q8 -14 -4 -26 q16 -12 22 -19 q4 -4 3 -6 q0 -1 -7 -1 l-57 0 q0 -38 4 -51 q7 11 13 33 q4 11 10 7 q30 -15 21 -20 q-3 -2 -4 -4 q-10 -16 -25 -37 q-5 -5 -6 -7 q15 -30 27 -28 q6 0 18 30 q6 13 1 -10 q-5 -21 2 -41 q4 -11 1 -17 q-7 -9 -34 4 q-22 13 -38 42 q-14 -12 -39 -23 q0 -9 -13 -16 q-17 -7 -25 -3 q-1 1 -1 5 q0 9 -11 15 q-6 4 2 3 q21 0 21 11 l0 40 q-6 -3 -15 -9 q-10 -8 -12 -1 q0 1 -2 3 q-6 13 -8 16 l0 -73 q0 -10 -19 -12 q-10 -2 -9 9 l0 117 q-30 -33 -25 -21 q24 39 38 115 q1 9 4 10 q2 2 9 -1 ZM177 187 q-1 -11 -1 -36 q0 -14 0 -24 l20 0 q3 2 9 13 q2 4 3 6 q-13 1 -15 17 q-2 19 -16 24 ZM147 170 q-3 0 -10 -2 q-6 -2 -10 -3 l0 -38 l21 0 l-1 43 ZM100 161 q-3 0 -10 -1 q-23 -3 -26 -4 l-7 -14 q14 -7 8 -12 q-2 -2 -2 -3 l37 0 l0 34 ZM63 123 l0 -49 l37 7 l0 42 l-37 0 ZM148 123 l-21 0 l0 -36 l23 6 q-2 16 -2 30 ZM150 88 l-23 -16 l0 -67 q20 13 33 33 q0 1 -1 5 q-7 26 -9 45 Z" /><glyph glyph-name="" unicode="&#x5165;" d="M88 200 q15 -3 45 -41 q7 -10 21 -37 q23 -48 41 -68 q20 -23 51 -35 q1 0 2 -1 q10 -2 -2 -5 q-13 -4 -28 -21 q-5 -6 -6 -6 q-17 8 -44 54 q-19 36 -28 76 q-32 -86 -117 -128 q-13 -7 -15 -6 q-1 2 10 11 q44 31 69 80 q24 45 28 86 q-15 16 -44 23 q-5 1 -5 2 q6 9 22 16 Z" /><glyph glyph-name="" unicode="&#x5168;" d="M105 206 q26 -2 40 -11 q1 -3 -3 -6 q-2 -2 -3 -3 q9 -21 31 -34 q23 -17 66 -24 q6 -1 6 -3 q1 -1 -5 -5 q-6 -5 -13 -17 q-4 -8 -6 -9 q-20 3 -52 30 q-20 21 -32 57 q-37 -59 -107 -87 q-10 -4 -11 -3 q-1 1 8 6 q41 28 63 69 q5 11 11 26 q4 14 7 14 ZM153 124 q7 1 24 -15 q4 -4 3 -6 q-2 -2 -8 -2 l-18 0 q-13 2 -12 -12 l0 -37 l24 0 q12 20 16 20 q5 0 21 -13 q1 -1 2 -2 q5 -5 4 -7 q-1 -2 -8 -2 l-59 0 l0 -57 l48 0 q1 2 3 5 q11 20 15 19 q6 -1 27 -20 q3 -3 2 -6 q-2 -2 -8 -2 l-203 0 q-3 0 -5 2 q-1 2 2 2 l88 0 l0 57 l-62 0 q-4 0 -7 2 q-2 2 2 2 l67 0 l0 49 l-38 0 q-4 0 -7 2 q-2 2 2 2 l71 0 q1 1 2 3 q8 17 12 16 Z" /><glyph glyph-name="" unicode="&#x516c;" d="M138 200 q0 12 22 -1 q1 -2 -4 -6 q-5 -4 -5 -6 q12 -59 81 -86 q12 -5 7 -6 q-16 -4 -24 -16 q-1 -2 -3 -5 q-5 -12 -14 -3 q-56 44 -60 129 ZM82 194 q45 -11 30 -20 q-4 -2 -4 -3 q-30 -64 -82 -103 q-17 -12 -10 -4 q42 41 56 119 q2 15 10 11 ZM107 119 q45 -9 31 -20 q-4 -3 -5 -5 q-13 -23 -49 -77 l84 2 q-8 21 -24 36 q30 -2 60 -36 q10 -20 1 -34 q-15 -15 -28 -2 q-3 4 -5 16 q0 6 -1 9 q-63 -14 -100 -27 q-8 -3 -10 -3 q-8 2 -14 34 q-1 5 6 5 q14 0 22 13 q16 32 24 77 q1 17 8 12 Z" /><glyph glyph-name="" unicode="&#x519b;" d="M209 204 q31 -14 36 -33 q-2 -4 -13 -3 q-22 2 -34 -11 q10 -6 19 -15 q7 -7 0 -9 l-108 0 l-28 -51 l33 0 l0 34 q-2 8 14 5 q1 0 4 -1 q22 -3 21 -7 q0 -2 -3 -5 q-4 -3 -4 -6 l0 -20 l16 0 q2 0 9 10 q11 15 16 12 q9 -5 23 -19 q3 -3 1 -5 q-1 -2 -6 -2 l-59 0 l0 -37 l51 0 q3 0 11 13 q6 11 8 11 q7 -2 22 -16 q12 -11 7 -12 l-99 0 l0 -54 q-1 -9 -21 -10 q-12 -1 -11 8 l0 56 l-97 0 q-4 0 -5 2 q-1 2 2 2 l100 0 l0 37 l-30 0 q-1 0 -6 -5 q-4 -5 -6 -6 q-21 7 -28 16 q0 2 3 3 q6 5 11 13 q1 3 4 8 q10 17 14 26 l-39 0 q-4 0 -5 2 q-1 3 2 3 l44 0 q11 20 16 34 q1 6 3 6 q25 -2 37 -12 q0 -3 -4 -4 q-5 -2 -8 -7 q-2 -4 -6 -10 q-3 -4 -5 -7 l61 0 q2 0 8 10 q10 16 15 12 q7 28 2 25 l-143 0 q11 -36 -16 -44 q-18 1 -21 15 q0 5 8 12 q16 13 15 29 q0 1 0 2 q-3 5 4 0 q2 -1 5 -6 q3 -3 4 -4 l141 0 q4 0 8 8 q4 7 7 7 Z" /><glyph glyph-name="" unicode="&#x5217;" d="M125 209 q6 -1 23 -16 q6 -5 5 -7 q0 -2 -8 -2 l-36 0 q-12 2 -16 -11 q-2 -6 -7 -24 q-2 -6 -3 -10 l16 0 q0 0 3 4 q6 11 9 12 q28 -8 35 -23 q-1 -2 -4 -3 q-6 -2 -8 -9 q-17 -77 -62 -108 q-25 -18 -62 -30 q0 1 7 6 q44 29 67 76 q-22 -6 -19 16 q0 1 1 4 q3 12 -1 15 q-24 -31 -51 -43 q-1 0 3 4 q38 44 44 124 l-41 0 q-4 0 -6 2 q-2 3 2 3 l95 0 q1 0 6 8 q6 12 8 12 ZM198 199 q-3 11 23 6 q23 -3 11 -14 q-2 -2 -2 -2 l0 -184 q2 -25 -27 -29 q-15 -3 -17 7 q-2 5 -4 8 q-6 9 -21 13 q-4 2 -4 3 q0 1 11 1 q30 1 30 12 l0 179 ZM169 171 q23 -2 12 -12 q-2 -2 -2 -2 l0 -115 q1 -6 -17 -9 q-14 -4 -12 11 l0 121 q-2 10 19 6 ZM103 135 l-21 0 q-5 -13 -12 -29 q19 -8 24 -20 q8 23 9 49 Z" /><glyph glyph-name="" unicode="&#x529f;" d="M141 195 q-2 12 9 10 q39 -6 28 -16 q-3 -2 -3 -3 q-1 -26 -4 -53 l22 0 q2 0 5 6 q3 7 5 8 q22 -3 34 -20 q0 -3 -4 -6 q-5 -4 -5 -8 q-5 -128 -18 -126 q-35 -23 -41 -2 q1 10 -23 19 q-10 4 1 3 q32 -1 39 5 q12 24 11 116 l-26 0 q-4 -107 -67 -133 q-41 -19 -58 -18 q53 21 73 53 q19 29 20 98 l-31 0 q-4 0 -5 2 q-1 3 3 3 l34 0 q0 12 1 56 q0 -7 0 6 ZM99 182 q3 1 19 -12 q13 -11 4 -11 l-27 0 q-14 1 -13 -9 l0 -81 q4 0 14 1 q36 3 23 -1 q-20 -8 -90 -40 q0 0 -2 -1 q-8 -9 -16 27 q-1 5 0 7 q0 1 6 1 q5 1 19 2 q12 1 17 1 l0 93 l-33 0 q-4 0 -5 3 q-1 2 3 2 l66 0 q1 0 7 8 q6 9 8 10 Z" /><glyph glyph-name="" unicode="&#x5357;" d="M108 196 q-2 13 14 11 q30 -3 21 -11 q-3 -2 -3 -3 l0 -24 l57 0 q2 0 8 9 q8 13 11 13 q9 -2 26 -19 q3 -4 3 -5 q0 -2 -4 -2 l-101 0 l0 -36 l40 0 q1 0 5 6 q7 9 9 9 q25 -9 33 -22 q0 -2 -5 -4 q-3 -2 -3 -3 l0 -110 q-3 -25 -36 -28 q-7 0 -10 9 q-5 12 -14 15 q-7 1 -7 3 q0 2 7 1 q32 0 30 15 l0 105 l-44 0 q30 -11 30 -14 q-1 -3 -6 -5 q-3 -1 -5 -2 q-9 -6 -29 -28 l13 0 q1 0 5 6 q5 8 7 8 q6 -1 16 -12 q3 -3 2 -5 q-1 -1 -5 -1 l-28 0 q-7 1 -6 -9 l0 -16 l13 0 q2 0 7 7 q4 7 6 7 q7 -1 17 -13 q3 -5 -6 -5 l-37 0 l0 -48 q1 -7 -17 -9 q-11 -2 -10 5 l0 52 l-47 0 l0 -55 q0 -8 -17 -10 q-10 -1 -10 6 l0 151 q0 7 23 -2 q9 -4 11 -4 l36 0 l0 36 l-92 0 q-3 0 -4 2 q-1 2 2 2 l94 0 l0 27 ZM73 125 q-8 1 -8 -8 l0 -70 l47 0 l0 25 l-34 0 q-6 2 -4 4 l52 0 q6 8 14 49 l-67 0 ZM81 118 q27 1 38 -13 q5 -15 -6 -22 q-20 -8 -20 14 q1 12 -9 18 q-3 2 -3 3 Z" /><glyph glyph-name="" unicode="&#x53d1;" d="M128 204 q25 -7 18 -12 q-7 -6 -8 -11 q-3 -12 -9 -37 q-1 -4 -1 -5 l60 0 q4 0 11 11 q7 10 10 10 q6 -2 24 -19 q5 -5 4 -6 q0 -1 -8 -1 l-103 0 q-4 -13 -12 -35 l43 0 q2 0 4 5 q8 13 20 6 q1 -1 5 -3 q8 -4 10 -6 q15 -11 5 -15 q-6 -3 -7 -5 q-8 -16 -27 -47 q19 -17 67 -28 q5 -1 5 -1 q0 -2 -3 -3 q-8 -3 -15 -10 q-7 -7 -11 -15 q-1 -3 -2 -3 q-23 5 -61 41 q-54 -38 -116 -40 q0 0 6 2 q63 20 95 60 q-12 25 -15 58 l-5 0 q-35 -73 -100 -110 q-1 0 6 8 q56 60 75 141 l-29 0 q-2 0 -7 -6 q-4 -7 -7 -7 q-27 7 -28 15 q1 1 3 3 q8 3 14 27 q2 9 4 20 q2 13 5 12 q30 -7 32 -16 q0 0 -1 -1 q-7 0 -19 -42 l34 0 q4 16 9 48 q0 3 1 8 q-4 18 24 9 ZM154 194 q49 3 46 -29 q-5 -13 -19 -12 q-12 2 -12 16 q-1 11 -12 22 q-3 2 -3 3 ZM161 95 l-37 0 q4 -23 21 -41 q14 26 16 41 Z" /><glyph glyph-name="" unicode="&#x53d6;" d="M139 204 q8 0 23 -17 q2 -3 1 -4 q-1 -2 -6 -2 l-21 0 q-12 2 -10 -13 l0 -9 l61 0 q1 0 5 7 q5 9 8 10 q25 -9 34 -23 q0 -2 -4 -5 q-6 -4 -7 -8 q-9 -51 -28 -91 q17 -21 47 -34 q5 -2 4 -4 q0 -2 -7 -5 q-11 -4 -18 -17 q-3 -4 -4 -5 q-11 -1 -40 40 q-26 -26 -52 -37 q1 -8 -15 -11 q-12 -2 -13 6 l0 54 q-36 -13 -59 -25 q-6 -3 -8 -3 q-8 8 -13 32 q1 1 6 2 q10 1 18 3 l0 136 l-20 0 q-4 0 -7 3 q-1 2 3 2 l107 0 q2 2 5 7 q7 12 10 11 ZM77 181 q-10 1 -9 -8 l0 -32 l29 0 l0 40 l-20 0 ZM154 155 q7 -52 24 -81 q10 39 12 81 l-36 0 ZM126 155 l0 -96 l33 6 q-8 31 -10 90 l-23 0 ZM68 136 l0 -41 l29 0 l0 41 l-29 0 ZM68 91 l0 -41 l29 5 l0 36 l-29 0 ZM160 61 l-34 -15 l0 -52 q25 22 40 51 q-3 3 -5 13 q-1 2 -1 3 Z" /><glyph glyph-name="" unicode="&#x53f7;" d="M217 121 q9 -2 29 -20 q3 -3 2 -4 q-2 -2 -6 -2 l-110 0 q-10 1 -13 -7 l-15 -25 l57 0 q4 0 9 7 q5 7 8 7 q20 -6 31 -20 q0 -2 -4 -5 q-5 -4 -6 -8 q-7 -36 -21 -56 q-5 -6 -20 -11 q-17 -4 -25 -2 q-3 2 -5 9 q-3 12 -11 15 q-11 4 -10 5 q1 1 15 0 q30 -2 36 17 q7 17 10 37 l-64 0 q-2 0 -5 -5 q-2 -6 -5 -7 q-19 2 -29 15 q1 3 6 6 q5 3 6 5 q0 1 2 6 q4 11 6 17 l-65 0 q-3 0 -3 2 q0 2 2 2 l181 0 q3 0 9 12 q6 10 8 10 ZM174 201 q25 -8 32 -19 q0 -3 -4 -6 q-5 -4 -5 -8 l0 -43 q2 -12 -18 -13 q-13 -2 -11 7 l0 13 l-77 0 l0 -10 q0 -8 -18 -10 q-12 -4 -10 6 l0 71 q0 5 1 7 q2 1 6 -1 q9 -3 19 -8 q5 -2 6 -2 l66 0 q2 0 6 7 q5 8 7 9 ZM99 181 q-9 1 -8 -8 l0 -36 l77 0 l0 44 l-69 0 Z" /><glyph glyph-name="" unicode="&#x5408;" d="M119 209 q36 -9 25 -16 q-2 -1 -2 -2 q21 -49 101 -72 q7 -2 -1 -7 q-10 -7 -14 -13 q0 0 -1 -1 q-5 -13 -10 -9 q-69 32 -80 96 q-43 -69 -110 -95 q-11 -4 -13 -4 q-2 1 6 6 q59 38 82 106 q0 2 1 4 q0 12 16 7 ZM155 123 q5 0 21 -15 q2 -2 1 -4 q0 -1 -4 -1 l-93 0 q-5 0 -6 2 q0 2 5 2 l63 0 q3 0 8 10 q4 6 5 6 ZM167 79 q21 -5 36 -19 q0 -2 -3 -6 q-4 -3 -4 -6 l0 -59 q2 -13 -21 -14 q-11 -1 -10 10 l0 11 l-73 0 l0 -12 q4 -11 -21 -11 q-12 -2 -9 12 l0 78 q-1 14 14 8 q4 -1 11 -3 q10 -2 12 -2 l58 0 q2 0 5 6 q3 6 5 7 ZM104 62 q-13 1 -12 -10 l0 -52 l73 0 l0 62 l-61 0 Z" /><glyph glyph-name="" unicode="&#x540c;" d="M74 190 q-20 4 -17 -17 l0 -182 q2 -14 -20 -13 q-7 0 -7 7 q0 1 0 2 l0 209 q-7 17 31 -1 l130 0 q1 0 5 6 q5 7 8 8 q18 -5 35 -25 q1 -2 -6 -6 q-5 -3 -5 -4 l0 -167 q4 -28 -26 -30 q-17 -3 -18 8 q-1 3 -1 4 q-3 9 -22 14 q-5 1 -5 2 q0 1 9 2 q33 2 33 14 l0 169 l-124 0 ZM145 121 q17 -2 31 -16 q-1 -3 -4 -5 q-2 -2 -3 -4 l0 -55 q3 -9 -20 -12 q-12 -4 -11 8 l0 5 l-27 0 l0 -8 q2 -9 -19 -12 q-12 -4 -11 11 l0 80 q-1 9 14 5 q1 0 2 -1 q15 -6 21 -8 l14 0 q2 0 5 5 q4 6 8 7 ZM138 105 l-16 0 q-12 0 -11 -8 l0 -50 l27 0 l0 58 ZM174 147 l-103 0 q-4 0 -6 2 q-1 2 3 2 l83 0 q1 0 6 8 q7 11 9 11 q3 0 17 -14 q6 -6 5 -7 q-1 -2 -14 -2 Z" /><glyph glyph-name="" unicode="&#x540e;" d="M189 207 q18 -11 26 -33 q-1 -1 -11 -1 q-8 1 -13 1 q-14 -1 -45 -2 q-40 -2 -53 -3 q-17 -1 -16 -11 l0 -33 l119 0 q4 0 9 11 q4 9 6 9 q8 0 31 -17 q2 -3 1 -5 q-1 -2 -5 -2 l-161 0 l0 -10 q0 -46 -11 -75 q-20 -45 -47 -52 q17 21 22 47 q6 24 6 74 l0 72 q-1 13 17 4 q12 -6 20 -8 q64 13 97 31 q6 3 8 3 ZM119 62 l0 -53 l60 0 l0 63 l-48 0 q-12 0 -12 -10 ZM97 91 q6 -3 18 -9 q9 -5 10 -5 l48 0 q0 0 2 3 q7 9 10 9 q28 -8 35 -19 q-1 -3 -5 -6 q-4 -4 -4 -6 l0 -68 q1 -13 -20 -12 q-13 -1 -12 8 l0 18 l-60 0 l0 -15 q1 -13 -22 -12 q-9 -1 -8 8 l0 98 q0 11 8 8 Z" /><glyph glyph-name="" unicode="&#x5428;" d="M150 207 q32 -2 23 -11 q-2 -2 -2 -3 l0 -32 l25 0 q2 0 8 10 q7 11 9 12 q4 1 21 -14 q4 -4 5 -4 q4 -4 3 -7 q-2 -2 -8 -2 l-63 0 l0 -91 l16 0 l0 63 q0 9 8 8 q31 -1 25 -10 q-3 -5 -3 -7 l0 -60 q2 -10 -14 -12 q-18 -3 -16 6 l0 7 l-16 0 l0 -38 q-2 -19 19 -18 q7 0 12 1 q13 2 21 37 q1 4 2 5 q2 0 2 -2 q-1 -25 13 -39 q5 -5 5 -8 q-1 -17 -36 -22 q-20 -2 -39 0 q-28 2 -28 34 l0 50 l-13 0 q-1 -1 -4 -5 q-6 -7 -8 -8 q-20 6 -22 16 q1 1 2 3 q4 3 4 6 l0 49 q-1 14 5 12 q30 -1 24 -9 q-2 -3 -2 -5 l0 -54 l14 0 l0 91 l-41 0 q-8 0 -11 3 q-1 0 -3 -2 q-1 -2 -3 -3 l0 -107 q1 -10 -12 -12 q-15 -4 -14 6 l0 14 l-17 0 l0 -16 q1 -14 -12 -15 q-15 -3 -14 9 l0 138 q0 8 1 9 q1 1 6 -1 q3 -1 8 -4 q10 -5 12 -5 l11 0 q1 0 3 4 q5 11 9 11 q30 -12 27 -24 l50 0 l0 40 q-1 7 8 6 ZM58 166 l-10 0 q-7 0 -7 -13 l0 -93 l17 0 l0 106 Z" /><glyph glyph-name="" unicode="&#x56fa;" d="M206 204 q25 -8 33 -25 q0 -2 -6 -6 q-4 -3 -4 -4 l0 -185 q2 -10 -16 -13 q-14 -3 -14 7 l0 14 l-141 0 l0 -12 q1 -8 -18 -10 q-12 -3 -10 7 l0 213 q0 6 2 7 q3 1 10 -2 q5 -2 13 -5 q8 -3 10 -3 l127 0 q1 0 6 7 q5 9 8 10 ZM71 182 q-14 1 -13 -13 l0 -173 l141 0 l0 130 l-57 0 l0 -35 q3 0 7 6 q4 6 6 6 q22 -6 29 -20 q0 -1 -4 -5 q-4 -4 -4 -6 l0 -45 q1 -7 -15 -10 q-15 -3 -14 8 l0 9 l-40 0 l0 -8 q2 -8 -19 -10 q-9 -1 -8 11 l0 62 q0 7 2 8 q2 1 11 -2 q1 0 5 -2 q11 -4 16 -4 l0 37 l-41 0 q-6 0 -9 3 q-2 2 4 2 l46 0 l0 35 q-1 12 5 9 q36 -2 25 -12 q-2 -2 -2 -3 l0 -29 l16 0 q1 0 4 7 q7 12 10 13 q5 0 21 -13 q5 -5 6 -5 l0 49 l-128 0 ZM117 83 q-11 1 -10 -9 l0 -35 l40 0 l0 44 l-30 0 Z" /><glyph glyph-name="" unicode="&#x56fd;" d="M202 206 q13 0 34 -18 q5 -5 -2 -11 q-3 -2 -3 -3 l0 -186 q2 -11 -18 -12 q-17 -4 -16 5 l0 18 l-143 0 l0 -13 q4 -9 -20 -11 q-13 -5 -12 7 l0 212 q0 8 4 9 q3 1 15 -5 q3 -1 10 -4 q8 -4 10 -4 l129 0 q2 0 6 7 q4 8 6 9 ZM69 185 q-16 1 -15 -13 l0 -129 l53 0 l0 56 l-30 0 q-6 0 -8 2 q-2 2 3 2 l35 0 l0 45 l-35 0 q-6 0 -9 2 q-2 3 4 3 l83 0 q2 0 8 9 q6 8 8 8 q9 -3 21 -16 q5 -4 3 -5 q-1 -1 -10 -1 l-44 0 l0 -45 l9 0 q3 0 9 10 q4 8 6 8 q5 0 22 -14 q4 -4 3 -6 q0 -2 -6 -2 l-43 0 l0 -7 q56 -4 42 -35 q14 -6 19 -10 l0 138 l-128 0 ZM136 86 l0 -43 l24 0 q2 1 4 9 q-10 2 -14 16 q-4 14 -14 18 ZM54 39 l0 -35 l143 0 l0 35 l-143 0 Z" /><glyph glyph-name="" unicode="&#x5728;" d="M107 211 q1 0 7 -2 q28 -6 28 -11 q1 -3 -4 -5 q-5 -2 -6 -5 q-8 -20 -11 -27 l79 0 q1 0 6 8 q8 14 12 14 q11 -1 27 -21 q3 -3 2 -5 q-1 -1 -6 -1 l-122 0 q-4 -6 -10 -19 q-15 -26 -22 -36 l0 -23 l55 0 l0 48 q-1 11 9 10 q37 0 26 -11 q-3 -3 -3 -4 l0 -43 l21 0 q1 0 6 7 q7 14 11 13 q8 -2 20 -16 q5 -5 4 -7 q-1 -2 -8 -2 l-54 0 l0 -77 l30 0 q1 0 7 8 q8 11 11 12 q9 0 25 -18 q4 -4 2 -5 q-1 -2 -7 -2 l-155 0 l0 -16 q2 -10 -18 -10 q-11 -1 -10 7 l0 95 q-44 -39 -50 -34 q33 33 50 69 l0 13 q-2 11 12 8 q0 0 1 2 q6 12 12 31 l-71 0 q-2 0 -3 2 q-1 2 1 3 l74 0 q4 8 11 41 q3 12 11 9 ZM87 73 l0 -77 l55 0 l0 77 l-55 0 Z" /><glyph glyph-name="" unicode="&#x5851;" d="M95 202 q17 -2 33 -11 q2 -4 -6 -7 q-19 -9 -32 -23 l23 0 q0 1 1 2 q7 14 11 13 q7 0 22 -15 q0 8 0 21 q0 10 17 2 q9 -4 13 -4 l20 0 q1 0 5 5 q4 7 7 8 q19 -4 29 -19 q1 -3 -4 -6 q-4 -1 -4 -3 l0 -99 q2 -21 -31 -24 q3 -2 8 -7 q5 -4 8 -7 q3 -3 3 -5 q-1 -2 -6 -2 l-69 0 l0 -36 l60 0 q2 0 8 10 q7 10 9 11 q6 2 25 -17 q5 -5 4 -6 q0 -2 -8 -2 l-222 0 q-4 0 -6 2 q-2 2 2 2 l97 0 l0 36 l-65 0 q-4 0 -6 2 q-1 3 2 3 l69 0 l0 22 q-4 -2 -12 -5 q-5 -1 -7 -2 q-6 -2 -7 -1 q-1 1 5 4 q35 19 47 43 q5 11 7 26 q2 12 2 43 l-46 0 q-8 1 -8 -8 q-1 -9 -1 -24 q-1 -14 -1 -23 l11 0 l0 37 q-1 8 10 6 q28 -2 19 -12 q-2 -2 -2 -3 l0 -38 q3 -7 -20 -9 q-7 -2 -7 7 l0 7 l-12 0 q-3 -37 -62 -61 q-6 -3 -7 -2 q0 1 5 5 q34 21 39 58 l-9 0 q-3 -3 -5 -8 q-2 -4 -4 -4 q-11 1 -22 12 q0 1 2 3 q3 3 3 7 l0 33 q0 7 11 6 q25 -3 16 -11 q-2 -2 -2 -3 l0 -30 l11 0 q2 22 2 55 l-46 0 q-4 0 -6 2 q-1 3 2 3 l37 0 q-6 1 -7 13 q-2 14 -10 19 q-5 3 -4 4 q0 1 5 1 q24 1 33 -11 q9 -15 -6 -26 l15 0 q6 14 9 30 q2 11 5 11 ZM175 168 l0 -23 l27 0 l0 31 l-19 0 q-8 0 -8 -8 ZM202 141 l-27 0 q0 -3 -1 -10 q-1 -14 -2 -20 l30 0 l0 30 ZM171 106 q-5 -21 -38 -48 q15 -3 15 -6 q1 -2 -3 -5 q-2 -3 -2 -4 l0 -17 l34 0 q1 0 6 7 q8 11 10 12 q-2 1 -3 6 q-4 14 -17 16 q-7 1 -7 2 q1 1 8 1 q30 1 28 11 l0 25 l-31 0 Z" /><glyph glyph-name="" unicode="&#x58eb;" d="M107 194 q-3 14 12 12 q0 0 2 0 q28 -3 28 -8 q0 -2 -3 -6 q-4 -5 -4 -9 l0 -71 l58 0 q1 2 4 7 q10 19 14 18 q6 0 24 -18 q1 -1 1 -1 q5 -5 4 -8 q0 -3 -5 -3 l-100 0 l0 -110 l35 0 q1 0 7 10 q9 15 12 15 q8 -1 26 -20 q4 -5 4 -7 q0 -3 -4 -3 l-192 0 q-3 0 -4 3 q-1 2 2 2 l79 0 l0 110 l-91 0 q-4 0 -5 2 q-2 3 1 3 l95 0 l0 82 Z" /><glyph glyph-name="" unicode="&#x5c04;" d="M74 205 q3 -1 9 -1 q18 -3 17 -6 q0 -2 -5 -5 q-12 -7 -22 -24 l24 0 q2 0 6 6 q5 6 6 6 q19 -8 28 -19 q0 -2 -5 -6 q-3 -2 -3 -3 l0 -15 l61 0 l0 54 q-2 15 11 12 q31 -2 19 -10 q-3 -2 -3 -3 l0 -53 q2 0 8 9 q6 8 8 8 q4 0 17 -16 q3 -3 2 -4 q0 -1 -6 -1 l-29 0 l0 -130 q4 -29 -28 -33 q-9 -2 -10 7 q-2 13 -16 18 q-7 2 -6 3 q1 1 10 0 q24 -1 23 13 l0 122 l-61 0 l0 -139 q2 -22 -30 -23 q-6 0 -9 8 q-6 11 -15 15 q-6 2 -4 3 q1 1 10 1 q1 0 3 0 q16 -2 15 10 l0 46 q-38 -54 -79 -67 q38 37 55 82 l-53 0 q-3 0 -6 3 q-1 2 3 2 l17 0 l0 96 q0 10 17 1 q5 -3 7 -3 q3 8 3 27 q1 9 2 10 q2 1 9 -1 ZM99 164 l-22 0 q-13 2 -11 -9 l0 -18 l33 0 l0 27 ZM99 132 l-33 0 l0 -26 l33 0 l0 26 ZM140 110 q31 -6 37 -28 q0 -17 -13 -21 q-17 -4 -16 26 q0 1 0 1 q0 7 -6 17 q-3 5 -2 5 ZM66 101 l0 -26 l33 0 l0 26 l-33 0 Z" /><glyph glyph-name="" unicode="&#x5c71;" d="M119 201 q36 -2 25 -13 q-2 -2 -2 -3 l0 -173 l45 0 l0 128 q-2 15 13 11 q35 -4 23 -14 q-1 -2 -1 -2 l0 -143 q1 -9 -23 -11 q-12 -1 -12 7 l0 20 l-115 0 q-5 -2 -11 -11 q-4 -6 -6 -6 q-20 6 -30 17 q0 1 2 3 q6 6 6 12 l0 116 q0 17 12 15 q34 -6 25 -15 q-3 -3 -3 -4 l0 -123 l41 0 l0 179 q-3 13 11 10 Z" /><glyph glyph-name="" unicode="&#x5de1;" d="M127 198 q26 -10 17 -17 q-5 -4 -6 -6 q0 0 -6 -10 q-17 -28 -31 -51 q46 -34 39 -75 q-3 -14 -17 -15 q-13 1 -16 15 q0 3 1 10 q10 32 -15 64 q7 25 14 55 q2 9 3 15 q1 3 2 8 q0 15 15 7 ZM154 187 q0 11 3 11 q1 2 17 -4 q26 -10 14 -17 q-3 -2 -4 -3 q-3 -4 -25 -37 q-11 -16 -16 -24 q1 -1 3 -2 q42 -33 42 -61 q1 -17 -13 -21 q-17 -2 -21 13 q0 4 0 11 q6 23 -19 58 q20 75 19 76 ZM217 192 q29 -12 17 -19 q-5 -3 -7 -5 q0 0 -12 -16 q-19 -24 -29 -38 q36 -23 48 -52 q8 -23 -7 -32 q-20 -7 -25 15 q-1 3 -1 12 q3 32 -25 57 q19 49 25 70 q1 2 2 6 q-1 10 14 2 ZM33 196 q15 5 43 -12 q13 -14 4 -28 q-13 -15 -27 -6 q-4 3 -5 14 q-2 21 -15 32 ZM54 126 q24 -9 30 -20 q0 -2 -3 -5 q-4 -4 -4 -7 l0 -51 q-1 -22 17 -26 q19 -6 53 -7 q29 -1 98 3 q5 0 0 -4 q-5 -4 -7 -7 q-5 -7 -6 -16 q1 -6 -6 -6 q-34 -1 -52 0 q-21 0 -35 1 q-30 3 -44 11 q-7 4 -19 18 q-11 12 -14 11 q-3 0 -13 -21 q-9 -21 -13 -23 q-18 10 -22 26 q0 3 8 8 q16 10 26 22 l0 76 l-29 0 q-4 0 -6 2 q-3 2 1 2 l30 0 q1 0 3 4 q4 8 7 9 Z" /><glyph glyph-name="" unicode="&#x5f00;" d="M203 204 q9 -3 27 -18 q3 -3 2 -4 q-1 -1 -6 -1 l-33 0 q-17 1 -15 -13 l0 -60 l22 0 q1 0 6 8 q9 11 11 12 q6 -1 27 -21 q3 -4 -7 -4 l-59 0 l0 -113 q2 -10 -15 -10 q-16 -4 -14 8 l0 115 l-39 0 l0 -9 q-1 -49 -31 -76 q-39 -27 -59 -28 q63 34 60 105 l0 8 l-62 0 q-4 0 -6 3 q-2 2 2 2 l66 0 l0 73 l-40 0 q-3 0 -4 3 q-1 2 2 2 l151 0 q1 0 6 8 q6 10 8 10 ZM149 181 l-28 0 q-12 2 -11 -18 l0 -55 l39 0 l0 73 Z" /><glyph glyph-name="" unicode="&#x5f52;" d="M85 199 q-1 9 11 6 q33 -2 23 -11 q-3 -3 -3 -4 q-3 -142 -21 -162 q-29 -37 -68 -49 q43 30 50 64 q10 32 8 156 ZM203 191 q22 -4 35 -22 q0 -2 -5 -7 q-5 -5 -5 -8 l0 -152 q1 -11 -14 -13 q-18 -5 -18 6 l0 17 l-80 0 q-5 0 -8 2 q-1 3 4 3 l84 0 l0 78 l-60 0 q-6 0 -9 2 q-3 3 3 3 l66 0 l0 71 l-68 0 q-5 0 -7 2 q-1 2 4 2 l66 0 q2 0 6 8 q4 7 6 8 ZM33 173 q-1 10 11 8 q29 -2 22 -10 q-4 -4 -4 -6 l0 -124 q3 -12 -20 -13 q-10 -2 -9 9 l0 136 Z" /><glyph glyph-name="" unicode="&#x5f97;" d="M67 209 q21 -6 33 -20 q0 -2 -5 -4 q-6 -1 -10 -5 q-38 -30 -53 -40 q-11 -7 -12 -6 q-2 0 6 9 q26 29 38 60 q2 5 3 6 ZM193 207 q14 -3 32 -19 q0 -3 -4 -6 q-4 -2 -4 -4 l0 -52 q-3 -12 -23 -14 q-6 0 -7 5 l0 6 l-51 0 l0 -5 q-1 -9 -18 -10 q-8 0 -8 8 l0 20 q-8 4 -15 -3 q-4 -3 -12 -13 q-4 -5 -7 -8 q9 -6 3 -13 q-3 -3 -3 -5 l0 -109 q-3 -8 -21 -9 q-7 -1 -6 6 l0 108 q-42 -32 -28 -13 q33 41 50 73 q4 9 7 10 q4 1 22 -10 q7 -4 10 -6 l0 57 q0 5 18 -3 q12 -5 15 -5 l38 0 q2 0 5 6 q4 7 7 8 ZM187 188 l-42 0 q-9 0 -9 -8 l0 -20 l51 0 l0 28 ZM136 155 l0 -27 l51 0 l0 27 l-51 0 ZM219 109 q5 -2 17 -12 q2 -1 3 -2 q3 -4 -1 -5 l-24 0 q-6 0 -7 -7 l0 -22 q3 0 10 9 q7 10 10 8 q11 -7 20 -17 q2 -1 2 -3 q-1 -1 -4 -1 l-38 0 l0 -62 q0 -21 -33 -23 q-6 0 -9 9 q-4 13 -16 17 q-6 1 -5 2 q1 1 10 1 q25 0 24 12 l0 44 l-89 0 q-7 1 -5 4 l94 0 l0 29 l-76 0 q-3 0 -4 2 q-2 2 1 2 l101 0 q3 0 10 8 q6 9 9 7 ZM115 46 q-8 6 5 3 q2 0 3 0 q23 -3 30 -18 q3 -18 -15 -22 q-11 0 -14 17 q-2 15 -9 20 Z" /><glyph glyph-name="" unicode="&#x5fd7;" d="M124 208 q32 -4 24 -14 q-3 -4 -3 -5 l0 -33 l50 0 q2 0 9 12 q7 12 9 12 q11 -5 27 -21 q4 -4 3 -6 q0 -1 -5 -1 l-93 0 l0 -47 l31 0 q1 0 6 8 q9 14 11 14 q7 -1 27 -19 q3 -4 2 -5 q-1 -2 -6 -2 l-171 0 q-4 0 -5 2 q-1 2 3 2 l69 0 l0 47 l-85 0 q-4 0 -5 2 q-1 2 3 2 l87 0 l0 42 q-2 13 12 10 ZM115 89 q34 -4 41 -32 q0 -15 -13 -23 q-13 -5 -17 8 q-1 2 0 9 q3 22 -11 38 ZM87 75 q34 -5 22 -15 q-4 -3 -4 -5 l0 -34 q-6 -18 32 -16 q37 -4 40 38 q2 12 3 11 q1 0 2 -14 q2 -20 13 -31 q5 -5 4 -9 q-3 -17 -30 -23 q-17 -3 -49 -1 q-48 2 -43 28 l0 60 q-1 15 10 11 ZM48 63 q1 15 10 -14 q5 -21 2 -32 q-6 -19 -23 -22 q-18 -2 -18 16 q0 4 9 11 q21 17 20 41 ZM239 38 q9 -19 -4 -32 q-17 -13 -24 6 q0 2 0 8 q4 22 -16 45 q20 5 44 -27 Z" /><glyph glyph-name="" unicode="&#x613f;" d="M214 214 q7 0 25 -15 q5 -5 4 -6 q0 -2 -7 -2 l-64 0 q1 -1 -6 -5 q-17 -10 -24 -20 l41 0 q1 0 3 4 q3 6 6 7 q17 -1 31 -17 q1 -3 -3 -6 q-3 -3 -3 -5 l0 -33 q2 -12 -13 -13 q-14 -4 -15 5 l0 4 l-17 0 q-8 1 -7 -11 l0 -28 q1 -13 -16 -20 q27 -7 27 -22 q0 -11 -13 -14 q-12 -1 -15 10 q0 1 0 2 q0 14 -17 24 q0 1 0 3 q0 12 -9 15 q-10 4 -1 5 q17 1 17 8 l0 28 l-26 0 q0 -3 -5 -8 q34 -14 14 -18 q-2 0 -2 0 q-29 -18 -62 -31 q-25 -69 -43 -68 q16 28 19 68 q5 44 3 141 q-1 8 1 9 q1 2 10 -1 q6 -2 13 -5 q10 -4 15 -4 l124 0 q1 0 5 7 q6 12 10 12 ZM79 191 q-15 1 -13 -9 q-1 -90 -8 -121 q27 19 39 41 q-13 -3 -12 9 l0 55 q0 8 2 9 q2 1 11 -2 q10 -4 21 -7 l8 0 q4 10 2 25 l-50 0 ZM122 161 q-12 1 -11 -7 l0 -12 l78 0 l0 19 l-67 0 ZM111 137 l0 -20 l78 0 l0 20 l-78 0 ZM180 94 q-6 6 18 2 q19 -4 26 -10 q15 -13 6 -27 q-16 -13 -25 4 q-1 1 -1 4 q-3 11 -24 27 ZM202 44 q-8 8 12 3 q22 -6 30 -14 q15 -17 -1 -30 q-20 -9 -26 12 q0 1 0 2 q-1 13 -15 27 ZM79 44 q5 12 9 -19 q0 -18 -7 -25 q-26 -14 -28 12 q3 5 10 10 q14 8 16 22 ZM128 35 l0 -16 q-4 -15 30 -14 q28 0 31 26 q2 7 3 8 q2 0 1 -7 q-1 -14 11 -24 q5 -4 5 -8 q4 -19 -50 -19 q-69 -6 -59 27 l0 27 q-1 15 9 13 q29 2 21 -10 q-2 -2 -2 -3 Z" /><glyph glyph-name="" unicode="&#x6210;" d="M127 207 q25 1 25 -7 q35 -4 41 -14 q8 -15 -6 -23 q-18 -7 -20 9 q0 22 -15 23 q0 -12 1 -46 l33 0 q1 0 7 9 q9 13 12 13 q8 -1 20 -18 q5 -5 4 -7 q0 -2 -6 -2 l-70 0 q0 -1 0 -5 q5 -53 11 -72 q11 26 15 50 q0 14 12 8 q2 -1 6 -3 q25 -9 22 -12 q0 -1 -3 -3 q-7 -5 -12 -17 q-11 -25 -26 -49 q21 -25 32 -21 q6 3 15 21 q1 1 1 2 q5 10 4 -6 q-1 -5 -1 -8 q-1 -12 8 -30 q6 -11 4 -14 q-7 -12 -35 -3 q-31 15 -51 39 q-21 -15 -46 -28 q-38 -18 -18 -4 q33 23 53 49 q-17 43 -20 106 l-48 0 q-17 2 -14 -12 q0 -19 0 -28 l17 0 q2 0 5 5 q3 6 6 7 q22 -5 31 -21 q0 -2 -3 -5 q-4 -4 -5 -7 q-2 -52 -8 -68 q-9 -13 -30 -12 q-4 1 -6 8 q-4 12 -18 14 q-1 -2 -3 -4 q-4 -9 -10 -18 q-9 -12 -23 -23 q-10 -7 -4 2 q26 38 24 110 q-1 27 -3 54 q0 4 0 4 q-1 7 1 8 q2 1 10 -1 q1 0 5 -2 q11 -3 17 -6 l58 0 q0 22 -3 48 q-3 12 7 10 ZM61 99 q1 -41 -8 -68 q11 -3 20 1 q13 3 11 67 l-23 0 Z" /><glyph glyph-name="" unicode="&#x6211;" d="M164 185 q-1 -11 -2 -21 q0 -7 0 -35 l36 0 q1 0 6 8 q7 12 10 12 q7 0 26 -19 q3 -4 1 -5 q-1 -1 -9 -1 l-70 0 q0 -27 7 -51 q3 5 11 17 q5 9 7 12 q4 11 11 7 q38 -21 20 -26 q-5 -2 -6 -3 q-30 -30 -34 -34 q17 -29 37 -37 q11 -1 21 24 q3 7 4 5 q0 -3 -2 -12 q-5 -23 3 -38 q4 -9 2 -15 q-8 -11 -38 1 q-27 12 -52 52 q-24 -16 -60 -25 q-5 -29 -36 -28 q-3 0 -5 7 q-4 15 -18 21 q-7 3 4 3 q26 1 26 10 l0 46 q-20 -9 -33 -20 q-6 -4 -10 -4 q-6 1 -14 25 q-3 8 16 12 q22 5 41 10 l0 41 l-54 0 q-4 0 -5 3 q0 2 3 2 l56 0 l0 33 q-56 -6 -38 0 q34 13 64 33 q7 5 14 0 q31 -25 12 -26 q-4 0 -5 0 q-5 -1 -12 -2 q-4 -1 -6 -1 l0 -37 l39 0 q0 13 0 68 q-2 13 9 10 q35 0 25 -12 q-2 -2 -2 -3 q39 -1 46 -10 q12 -13 2 -25 q-15 -12 -25 1 q-1 1 -2 5 q-2 19 -21 22 ZM132 124 l-39 0 l0 -34 l40 11 q0 7 -1 23 ZM134 94 l-41 -20 l0 -67 q32 18 52 38 q-7 20 -11 49 Z" /><glyph glyph-name="" unicode="&#x6218;" d="M136 196 q0 8 9 7 q38 -2 28 -13 q-2 -3 -3 -4 q39 2 48 -15 q6 -12 -7 -21 q-14 -6 -20 6 q0 1 -1 4 q-2 19 -21 22 l0 -59 l33 4 q2 0 6 8 q5 11 8 12 q7 1 25 -15 q3 -3 3 -4 q-1 -1 -7 -2 l-68 -7 q2 -30 8 -55 q11 20 15 41 q0 10 12 5 q26 -8 28 -17 q0 -2 -4 -3 q-6 -3 -8 -7 q-2 -3 -5 -9 q-17 -27 -25 -38 q15 -27 31 -27 q6 1 15 28 q2 6 4 7 q3 1 2 -4 q-6 -29 4 -47 q5 -10 1 -17 q-9 -12 -37 0 q-25 12 -44 39 q-38 -31 -74 -37 q-10 -1 1 4 q35 17 62 52 q-10 24 -16 82 l-30 -3 q-3 -1 -5 2 q-2 2 2 2 l33 3 q-2 38 -3 76 ZM89 81 l-35 0 q-6 0 -5 -8 q0 -3 0 -5 l0 -51 l40 0 l0 64 ZM20 89 q0 6 7 4 q2 0 9 -4 q9 -4 11 -4 l6 0 l0 109 q-1 10 7 9 q34 1 24 -10 q-3 -3 -3 -4 l0 -43 l11 0 q0 0 3 4 q11 14 14 14 q5 1 22 -16 q3 -3 1 -4 q-1 -2 -6 -2 l-45 0 l0 -57 l3 0 q3 0 6 6 q3 6 7 6 q15 -2 29 -17 q0 -4 -5 -9 q-3 -2 -3 -3 l0 -58 q2 -14 -17 -16 q-12 -2 -12 8 l0 11 l-40 0 l0 -15 q1 -11 -14 -11 q-16 -5 -15 5 l0 97 Z" /><glyph glyph-name="" unicode="&#x6280;" d="M149 204 q-1 6 1 7 q1 1 10 0 q31 -2 21 -11 q-3 -3 -3 -4 l0 -35 l26 0 q3 0 7 11 q4 10 6 10 q10 -2 27 -18 q3 -3 2 -5 q-1 -2 -5 -3 l-63 0 l0 -46 l5 0 q2 0 5 5 q2 6 5 7 q21 -6 36 -22 q0 -2 -4 -4 q-9 -6 -13 -14 q-17 -30 -28 -44 q23 -16 65 -24 q4 -1 -4 -7 q-8 -7 -11 -11 q-1 -2 -3 -6 q-3 -9 -8 -7 q-26 8 -59 36 q-60 -37 -82 -33 q40 18 67 50 q-13 25 -21 69 l-13 0 q-4 0 -6 2 q-2 3 2 3 l38 0 l0 46 l-31 0 q2 -2 1 -4 q0 -1 -4 -1 l-29 0 l0 -37 q14 5 21 6 q1 0 3 1 q12 4 2 -2 q-1 -1 -3 -2 q-4 -3 -11 -8 q-8 -6 -12 -9 l0 -96 q0 -20 -31 -23 q-8 -1 -9 7 q-2 9 -10 14 q-1 1 -5 3 q-9 2 3 3 q14 0 19 4 q4 5 4 17 l0 50 q-2 -1 -9 -5 q-7 -4 -10 -6 q-7 -5 -11 5 q-3 5 -4 13 q0 0 0 1 q-4 9 4 10 q4 1 13 4 q13 4 17 6 l0 44 l-32 0 q-3 0 -4 2 q-1 2 2 2 l34 0 l0 46 q-1 14 7 13 q23 -1 27 -6 q0 -2 -3 -6 q-2 -3 -2 -4 l0 -43 q1 0 4 5 q7 9 10 9 q3 0 14 -8 l35 0 l0 43 ZM134 105 q9 -34 29 -51 q16 24 24 51 l-53 0 Z" /><glyph glyph-name="" unicode="&#x65f6;" d="M190 206 q25 -1 26 -7 q0 -3 -2 -5 q-3 -3 -3 -6 l0 -51 l4 0 q6 16 13 19 q6 -2 20 -17 q3 -3 2 -5 q-1 -2 -5 -2 l-34 0 l0 -138 q0 -14 -12 -22 q-17 -9 -28 -3 q-1 1 -2 5 q-2 14 -12 18 q-10 5 3 6 q22 3 22 11 l0 123 l-70 0 l0 -113 q1 -14 -20 -14 q-10 -1 -9 9 l0 13 l-31 0 l0 -18 q1 -14 -19 -13 q-10 -2 -8 6 l0 171 q-1 8 1 9 q3 2 10 -2 q9 -3 14 -6 l27 0 q3 0 7 8 q3 6 5 6 q22 -5 30 -21 q0 -2 -4 -4 q-3 -3 -3 -5 l0 -21 l70 0 l0 57 q-2 14 8 12 ZM61 169 q-10 1 -9 -12 l0 -55 l31 0 l0 67 l-22 0 ZM137 108 q17 -4 27 -16 q11 -15 1 -28 q-13 -13 -25 -1 q-2 3 -2 15 q-1 18 -6 24 q-1 1 -2 3 q-6 6 7 3 ZM52 98 l0 -66 l31 0 l0 66 l-31 0 Z" /><glyph glyph-name="" unicode="&#x660c;" d="M176 205 q24 -9 31 -23 q0 -1 -3 -4 q-4 -3 -4 -6 l0 -63 q0 -13 -22 -11 q-9 0 -9 9 l0 4 l-87 0 q1 -15 -19 -16 q-10 0 -10 7 l0 91 q-2 8 8 6 q13 -4 20 -8 l81 0 q1 0 5 6 q6 8 9 8 ZM169 186 l-79 0 q-9 1 -8 -8 l0 -24 l87 0 l0 32 ZM82 149 l0 -33 l87 0 l0 33 l-87 0 ZM193 92 q20 -6 32 -20 q0 -2 -4 -6 q-4 -4 -4 -6 l0 -71 q1 -15 -23 -15 q-11 0 -10 7 l0 14 l-118 0 l0 -10 q0 -12 -22 -12 q-9 -1 -8 7 l0 99 q-1 13 7 10 q19 -5 28 -10 l108 0 q2 0 6 6 q5 7 8 7 ZM66 66 l0 -26 l118 0 l0 35 l-111 0 q-8 1 -7 -9 ZM184 35 l-118 0 l0 -35 l118 0 l0 35 Z" /><glyph glyph-name="" unicode="&#x6717;" d="M49 203 q-6 6 17 1 q13 -5 16 -12 q6 -14 -6 -25 l8 0 q2 8 7 10 q16 -1 30 -16 q2 -2 -3 -7 q-3 -3 -3 -4 l0 -69 q2 -13 -16 -14 q-13 -3 -12 8 l0 7 l-35 0 l0 -51 l35 10 q-4 13 -13 20 q37 -1 45 -27 q0 -14 -13 -21 q-13 -6 -16 7 q0 2 -1 7 q0 8 -1 10 q-26 -18 -44 -38 q-7 -8 -11 -10 q-5 1 -14 23 q-3 6 1 8 q5 4 5 11 l0 133 q0 9 2 11 q1 2 6 -1 q8 -4 19 -7 l6 0 q-5 4 -4 17 q2 14 -5 19 ZM202 197 q22 -3 32 -18 q0 -4 -4 -7 q-3 -3 -3 -4 l0 -173 q-1 -26 -31 -26 q-3 0 -4 6 q-3 14 -17 19 q-8 3 0 3 q23 1 23 11 l0 59 l-34 0 q-6 -59 -58 -89 q-18 -8 -14 -2 q36 28 42 63 q9 34 4 145 q-1 7 1 9 q3 2 8 -2 q12 -6 24 -7 l21 0 q1 0 3 5 q5 8 7 8 ZM198 179 l-23 0 q-11 2 -9 -10 q1 -7 1 -20 q0 -13 0 -21 l31 0 l0 51 ZM61 163 q-10 1 -9 -10 l0 -25 l35 0 l0 35 l-26 0 ZM52 124 l0 -37 l35 0 l0 37 l-35 0 ZM167 124 q-1 -36 -2 -53 l33 0 l0 53 l-31 0 Z" /><glyph glyph-name="" unicode="&#x672f;" d="M122 203 q23 -2 27 -7 q0 -2 -3 -6 q-2 -2 -2 -3 l0 -49 l58 0 q2 3 6 9 q9 15 10 14 q7 0 22 -17 q6 -7 -1 -10 l-86 0 q13 -67 81 -95 q8 -3 8 -4 q0 -2 -5 -6 q-11 -7 -20 -18 q-1 -1 -2 -4 q-2 -6 -9 0 q-54 39 -56 127 l-6 0 l0 -154 q1 -10 -24 -11 q-10 -1 -8 6 l0 110 q-24 -34 -62 -63 q-48 -35 -27 -10 q58 57 77 122 l-76 0 q-10 2 -5 4 l93 0 l0 55 q-1 11 10 10 ZM166 191 q28 0 35 -14 q8 -13 -2 -24 q-12 -10 -22 -1 q-3 3 -5 14 q-3 15 -8 19 q-7 4 -6 5 q0 2 8 1 Z" /><glyph glyph-name="" unicode="&#x673a;" d="M61 207 q29 0 22 -9 q-3 -4 -3 -6 l0 -46 q1 0 8 8 q8 10 10 10 q8 -1 22 -17 q4 -4 3 -5 q0 -2 -6 -2 l-37 0 l0 -29 q33 -6 39 -22 q5 -15 -8 -24 q-14 -6 -19 8 q0 29 -12 31 l0 -125 q2 -9 -23 -13 q-7 -3 -6 11 l0 92 q-32 -43 -42 -41 q33 46 42 112 l-30 0 q-6 0 -8 2 q-2 2 3 2 l35 0 l0 54 q-1 9 10 9 ZM187 193 q20 -3 35 -22 q0 -3 -7 -8 q-3 -3 -3 -4 l-4 -140 q-2 -20 6 -18 q11 3 18 33 q2 8 2 7 q1 -1 0 -12 q-1 -19 12 -30 q4 -4 4 -6 q1 -16 -28 -20 q-10 -2 -20 0 q-25 0 -24 27 l4 174 l-16 0 q-6 -1 -6 -10 q-3 -110 -15 -146 q-13 -31 -53 -48 q-12 -4 -8 0 q33 20 40 58 q9 40 6 150 q-1 6 1 7 q2 2 7 0 q3 -1 9 -3 q12 -4 18 -4 l12 0 q0 0 2 3 q5 11 8 12 Z" /><glyph glyph-name="" unicode="&#x6821;" d="M111 142 l-35 0 l0 -18 q37 -8 40 -27 q8 15 13 31 q3 8 5 9 q25 -4 32 -18 q-1 -2 -5 -3 q-5 -1 -7 -4 q-2 -2 -7 -8 q-5 -5 -8 -8 q7 -33 21 -49 q9 19 13 44 q1 10 3 12 q10 1 31 -11 q-5 23 -28 40 q-5 4 -4 5 q48 -9 62 -33 q7 -23 -14 -30 q-12 0 -16 10 q-1 -1 -2 -4 q-15 -36 -26 -51 q12 -12 51 -22 q13 -4 13 -5 q0 -1 -3 -2 q-10 -5 -20 -16 q-2 -2 -3 -6 q-2 -11 -17 -1 q-19 10 -38 32 q-36 -30 -84 -37 q0 0 6 3 q45 21 65 53 q-12 22 -15 62 q-29 -26 -42 -30 q-1 1 5 10 q4 5 6 8 q-15 1 -16 18 q-1 17 -11 22 l0 -132 q1 -10 -17 -12 q-14 -2 -12 7 l0 92 q-24 -30 -41 -38 q-1 0 3 6 q31 48 35 101 l-30 0 q-4 0 -6 2 q-2 3 2 3 l37 0 l0 54 q-3 10 21 5 q21 -2 9 -12 q-1 -1 -1 -1 l0 -44 q3 2 8 8 q9 9 11 9 q4 0 16 -10 l90 0 q1 0 6 9 q6 9 8 10 q7 -1 22 -15 q6 -6 5 -7 q0 -2 -8 -2 l-118 0 q5 -5 4 -7 q-1 -2 -9 -2 ZM152 182 q-1 14 -13 20 q-3 1 -2 2 q39 3 48 -18 q3 -23 -19 -26 q-15 0 -14 20 q0 1 0 2 Z" /><glyph glyph-name="" unicode="&#x6846;" d="M219 199 q8 -1 22 -16 q4 -4 3 -5 q0 -2 -5 -2 l-97 0 q-10 1 -9 -9 l0 -140 l34 0 l0 57 l-19 0 q-3 0 -3 3 q-1 2 2 2 l20 0 l0 52 l-21 0 q-3 0 -4 2 q0 2 2 2 l53 0 q1 0 5 7 q7 12 9 12 q5 0 20 -15 q6 -7 0 -8 l-27 0 q-10 0 -10 -10 l0 -42 l5 0 q1 0 4 6 q7 11 10 11 q3 0 16 -13 q4 -4 3 -7 q0 -2 -4 -2 l-34 0 l0 -57 l11 0 q0 0 2 4 q8 14 11 14 q8 -1 20 -15 q3 -4 3 -6 q0 -2 -4 -2 l-104 0 l0 -34 l73 0 q1 0 5 7 q7 13 10 13 q8 -1 21 -16 q4 -5 3 -6 q-1 -2 -7 -2 l-103 0 q0 0 -2 -3 q-1 -4 -3 -6 q-3 -6 -9 -3 q-7 4 -17 10 q-4 4 -1 8 q3 3 3 8 l0 187 q0 9 8 7 q12 -3 28 -11 l62 0 q1 0 6 7 q6 11 9 11 ZM102 137 l-33 0 l0 -22 q20 -7 30 -17 q11 -14 3 -25 q-14 -13 -23 0 q-2 4 -2 14 q-1 16 -8 21 l0 -129 q-1 -9 -16 -12 q-12 -4 -11 6 l0 102 q-37 -55 -32 -38 q21 50 29 100 l-24 0 q-4 0 -7 2 q-2 2 2 2 l32 0 l0 48 q-1 14 8 11 q31 -2 22 -12 q-3 -3 -3 -4 l0 -43 l5 0 q1 0 4 6 q7 9 9 9 q7 -1 17 -14 q2 -3 2 -4 q-1 -1 -4 -1 Z" /><glyph glyph-name="" unicode="&#x6b21;" d="M131 208 q33 -7 31 -12 q0 -2 -5 -4 q-9 -4 -11 -10 q-6 -14 -13 -29 l55 0 q1 0 4 5 q7 13 11 13 q31 -15 39 -34 q-1 -2 -9 -2 q-22 1 -36 -14 q-7 -8 -8 -8 q-2 -1 0 6 q3 17 3 29 l-61 0 q-2 -2 -7 -12 q-9 -15 -13 -21 q-46 -54 -24 -17 q22 40 27 96 q-3 21 17 14 ZM29 187 q30 -1 39 -17 q4 -31 -22 -30 q-7 2 -11 18 q-4 18 -11 22 q-9 5 -8 6 q1 2 13 1 ZM85 159 q7 16 9 17 q1 0 -4 -15 q-5 -15 -13 -39 q-8 -22 -13 -37 q-3 -12 -3 -33 q0 -4 2 -15 q6 -28 1 -37 q-26 -21 -36 4 q0 10 5 26 q5 20 3 29 q-1 8 -16 12 q-7 3 -5 4 q2 1 12 1 q13 1 23 17 q18 29 35 66 ZM146 133 q32 -2 29 -8 q0 -1 -3 -3 q-4 -3 -5 -7 q0 -4 -1 -9 q0 -4 0 -6 q4 -26 15 -43 q15 -27 54 -45 q10 -4 10 -5 q1 -2 -6 -5 q-12 -4 -21 -16 q-4 -6 -6 -6 q-19 7 -38 43 q-9 18 -12 62 q-9 -50 -38 -74 q-49 -38 -62 -31 q81 40 71 143 q-2 13 13 10 Z" /><glyph glyph-name="" unicode="&#x6b7c;" d="M204 201 q24 -8 34 -27 q0 -1 -4 -1 q-9 0 -17 -2 q-11 -3 -26 -6 l0 -60 l19 0 q1 0 7 10 q6 12 8 12 q12 -6 24 -20 q2 -3 1 -5 q-1 -2 -5 -2 l-54 0 l0 -109 q3 -15 -19 -16 q-10 -1 -11 8 l0 117 l-43 0 q-4 0 -5 3 q0 3 4 2 l44 0 l0 58 q-45 -4 -38 2 q56 16 77 33 q3 3 4 3 ZM84 121 l-18 0 q-3 -10 -12 -25 q17 -5 24 -15 q4 14 6 37 q0 2 0 3 ZM29 -7 q-19 -8 -8 1 q1 1 1 1 q36 25 50 64 q-16 -7 -19 8 q0 2 1 7 q2 13 -3 17 q-6 -9 -20 -23 q-8 -6 -9 -6 q-2 0 2 7 q24 37 26 105 l-28 0 q-3 1 -4 3 q-1 2 2 2 l72 0 q1 0 5 5 q7 11 10 11 q8 -2 20 -15 q3 -4 2 -5 q0 -1 -4 -1 l-35 0 q-7 -3 -16 -31 q-4 -12 -6 -17 l12 0 q1 0 3 4 q6 9 10 9 q17 -1 28 -18 q0 -1 -4 -4 q-3 -3 -4 -5 q-14 -93 -84 -119 Z" /><glyph glyph-name="" unicode="&#x6bcd;" d="M173 201 q26 -11 31 -23 q0 -1 -4 -5 q-4 -4 -4 -6 l-1 -60 l4 0 q1 0 7 9 q7 14 10 14 q6 0 21 -19 q3 -5 3 -6 q-1 -2 -5 -2 l-40 0 l-3 -67 q2 0 7 7 q5 9 8 9 q8 -1 21 -19 q2 -4 2 -5 q-1 -2 -5 -2 l-33 0 q-4 -29 -11 -40 q-10 -14 -30 -13 q-8 0 -10 8 q-3 13 -21 18 q-6 2 -6 3 q0 1 6 1 q30 -2 35 9 q4 6 5 14 l-85 0 q-2 0 -8 -8 q-5 -8 -8 -8 q-15 7 -24 17 q0 3 3 7 q5 5 5 9 l6 60 l-32 0 q-4 0 -6 2 q-1 2 3 2 l35 0 l5 82 q1 14 22 0 q7 -4 8 -4 l75 0 q1 0 4 5 q7 11 10 11 ZM81 170 l-4 -63 l86 0 l2 74 l-71 0 q-12 0 -13 -11 ZM100 164 q25 2 40 -14 q8 -17 -4 -27 q-23 -11 -24 13 q3 16 -9 25 q-3 2 -3 3 ZM76 103 l-7 -73 l91 0 l3 73 l-87 0 ZM133 79 q12 -26 -13 -34 q-18 1 -13 27 q2 9 -10 18 q-3 2 -3 3 q23 2 39 -14 Z" /><glyph glyph-name="" unicode="&#x6d32;" d="M88 127 q2 5 9 -11 q4 -11 2 -20 q-9 -27 -28 -13 q-4 7 4 16 q12 14 13 28 ZM220 200 q26 -3 17 -13 q-2 -3 -2 -4 l0 -192 q3 -14 -15 -14 q-8 -2 -10 0 q-2 2 -2 13 l0 88 q-13 -8 -17 7 q-1 4 0 11 q4 16 -8 32 l0 -119 q1 -15 -12 -17 q-14 -4 -14 13 l0 77 q-15 -7 -20 5 q-1 5 0 16 q2 18 -5 25 q0 -72 -10 -100 q-9 -28 -42 -45 q-9 -6 -12 -7 q-3 0 4 6 q20 18 26 43 q7 24 7 80 l0 86 q0 10 2 12 q2 2 12 0 q26 -3 17 -15 q-4 -4 -4 -6 l0 -46 q18 -10 25 -21 l0 63 q-2 14 12 10 q25 -4 16 -14 q-2 -3 -2 -4 l0 -39 q20 -9 25 -16 l0 73 q0 13 10 12 q1 0 2 0 ZM75 182 q4 -15 -10 -22 q-14 -5 -18 9 q0 2 -1 5 q-3 17 -15 22 q6 5 28 -1 q13 -4 16 -13 ZM82 169 q8 18 -8 -46 q-15 -62 -15 -73 q0 -4 2 -18 q4 -34 0 -41 q-9 -12 -21 -7 q-12 7 -9 21 q9 34 7 43 q-3 11 -19 17 q-7 2 3 3 q15 1 17 3 q8 8 33 73 q7 18 10 25 ZM57 118 q-12 -23 -26 -9 q-1 2 -3 8 q-3 17 -13 20 q6 7 31 -1 q13 -6 11 -18 Z" /><glyph glyph-name="" unicode="&#x6d77;" d="M118 211 q29 -3 39 -14 q0 -2 -7 -8 q-10 -10 -16 -18 l64 0 q2 -1 9 11 q6 9 7 9 q5 0 23 -13 q9 -9 3 -12 l-109 0 q-1 -1 -3 -3 q-10 -13 -14 -16 q9 -5 20 -10 l49 0 q2 0 5 6 q4 6 6 7 q14 -2 33 -17 q0 -3 -5 -7 q-3 -3 -3 -4 l-2 -35 q1 0 6 5 q7 7 10 7 q3 0 18 -15 q0 0 1 -1 q4 -5 -2 -5 l-34 0 l-2 -50 q10 12 13 12 q3 1 15 -10 q3 -2 4 -3 q3 -2 2 -4 q-1 -2 -5 -2 l-30 0 q1 -22 -7 -33 q-12 -19 -39 -17 q-2 0 -6 7 q-6 14 -16 17 q-12 4 -11 6 q1 1 16 0 q39 -6 35 20 l-70 0 q-2 0 -6 -5 q-5 -5 -7 -5 q-18 6 -24 15 q0 2 4 7 q5 5 6 8 q0 2 2 8 q3 16 5 29 l-28 0 q-3 0 -3 2 q0 3 3 2 l29 0 l6 53 q-20 -15 -24 -15 q-5 0 6 14 q16 21 23 44 q4 12 7 25 q2 7 4 8 ZM138 133 q-9 1 -10 -13 l-5 -38 l65 0 l3 51 l-53 0 ZM141 121 q-7 6 11 3 q16 -4 20 -10 q7 -11 -1 -20 q-10 -9 -20 -2 q-3 2 -4 11 q-1 13 -6 18 ZM122 78 l-11 -52 l74 0 l3 52 l-66 0 ZM134 67 q-6 6 16 2 q14 -4 18 -11 q6 -13 -7 -23 q-12 -7 -19 6 q-1 2 0 7 q1 12 -8 19 ZM39 201 q1 0 3 0 q22 -3 29 -11 q10 -14 2 -28 q-9 -12 -24 -5 q-4 2 -4 12 q1 17 -9 25 q0 0 -1 1 q-12 7 4 6 ZM82 146 q-15 -53 -21 -73 q-7 -29 -4 -47 q0 -2 2 -7 q6 -20 2 -28 q-24 -27 -37 3 q0 3 2 13 q6 21 4 33 q-1 7 -13 14 q-1 1 -1 1 q-5 2 -6 4 q0 1 6 1 q17 -1 23 9 q11 18 38 78 q5 13 7 14 q2 -1 -2 -15 ZM14 147 q23 -3 33 -13 q12 -13 4 -27 q-10 -13 -24 -4 q-3 2 -3 11 q-1 16 -10 27 q0 0 -1 1 q-9 5 1 5 Z" /><glyph glyph-name="" unicode="&#x6f14;" d="M171 192 q6 -12 -10 -19 l47 0 q1 0 4 6 q3 6 5 7 q25 -8 28 -26 q-1 -1 -6 -1 q-13 0 -23 -6 q16 -11 7 -12 l-49 0 q-3 0 -3 -6 l0 -18 l19 0 q1 0 5 5 q4 7 7 8 q14 -3 28 -20 q-1 -2 -7 -5 q-3 -2 -3 -2 l0 -70 q2 -11 -15 -10 q-12 -2 -11 11 l-70 0 q0 -10 -13 -11 q-17 -3 -15 4 l0 94 q-1 8 12 2 q2 0 7 -2 q9 -4 11 -4 l18 0 l0 24 l-36 0 q-4 -8 -14 -9 q-15 0 -13 17 q0 2 4 8 q9 12 7 22 q-1 7 11 -6 l47 0 q-7 3 -7 13 q0 10 -7 15 q0 6 20 3 q11 -3 15 -12 ZM105 169 q5 -8 5 -23 l79 0 q9 14 11 14 q2 1 9 -3 q1 4 2 12 l-106 0 ZM171 113 l0 -33 l23 0 l0 33 l-23 0 ZM133 113 q-10 1 -9 -7 l0 -26 l20 0 l0 33 l-11 0 ZM144 76 l-20 0 l0 -38 l20 0 l0 38 ZM194 76 l-23 0 l0 -38 l23 0 l0 38 ZM141 23 q29 -16 10 -21 q-8 -2 -11 -4 q-52 -29 -64 -25 q23 20 45 44 q10 15 20 6 ZM168 21 q-6 5 18 2 q19 -4 34 -11 q16 -9 13 -26 q-5 -17 -21 -11 q-3 2 -7 10 q-11 22 -37 36 ZM72 176 q4 -15 -10 -22 q-14 -5 -18 9 q0 2 -1 5 q-3 17 -15 22 q6 5 28 -1 q13 -4 16 -13 ZM81 168 q8 18 -8 -46 q-15 -62 -15 -73 q0 -4 2 -18 q4 -35 0 -41 q-9 -12 -21 -7 q-12 7 -9 21 q9 34 7 43 q-3 11 -19 17 q-7 2 3 3 q15 1 17 3 q8 8 33 73 q7 18 10 25 ZM54 115 q-13 -23 -26 -9 q-1 2 -3 8 q-4 17 -14 20 q5 7 31 0 q14 -7 12 -19 Z" /><glyph glyph-name="" unicode="&#x706b;" d="M107 196 q-1 10 11 9 q37 -2 27 -13 q-3 -3 -3 -4 q-2 -75 13 -103 q17 21 33 63 q3 11 10 7 q44 -24 25 -29 q-3 0 -4 -1 q-40 -31 -59 -49 q26 -46 88 -69 q5 -2 0 -3 q-3 0 -5 -1 q-16 -8 -26 -21 q-5 -9 -13 -1 q-58 45 -66 122 q-9 -55 -36 -84 q-44 -43 -83 -43 q63 35 77 75 q16 37 11 145 ZM79 94 q-6 -23 -28 -23 q-22 4 -10 26 q1 2 5 5 q20 16 16 38 q1 13 13 -15 q7 -18 4 -31 Z" /><glyph glyph-name="" unicode="&#x70c8;" d="M120 206 q6 0 21 -15 q4 -4 3 -6 q-2 -1 -10 -1 l-36 0 q-6 1 -9 -8 q-8 -15 -12 -26 l19 0 q1 0 4 5 q3 6 5 7 q23 -4 34 -20 q0 -1 -4 -4 q-4 -2 -5 -4 q-13 -66 -69 -84 q-28 -10 -47 -13 q0 0 7 4 q43 20 60 45 q-11 -4 -18 1 q-6 5 -2 16 q3 14 -1 20 q-28 -33 -46 -39 q0 1 3 5 q15 16 23 35 q11 29 16 60 l-33 0 q-4 0 -6 2 q-2 2 2 2 l88 0 q0 0 3 5 q7 13 10 13 ZM214 200 q23 -3 12 -14 q-2 -2 -2 -2 l0 -119 q2 -27 -29 -30 q-17 -2 -19 9 q0 4 -1 5 q-5 9 -16 12 q-3 1 -3 2 q0 1 8 1 q30 0 30 14 l0 116 q-4 9 20 6 ZM166 172 q19 -2 10 -11 q-1 -2 -1 -2 l0 -75 q0 -7 -17 -9 q-13 -3 -11 9 l0 83 q-3 9 19 5 ZM75 145 l-11 -17 q25 -8 26 -25 q7 14 10 42 l-25 0 ZM80 37 q30 -5 39 -28 q3 -24 -18 -28 q-19 1 -12 27 q3 11 -7 25 q-3 4 -2 4 ZM132 37 q36 -7 44 -32 q2 -23 -16 -26 q-18 2 -16 25 q1 16 -9 28 q-4 4 -3 5 ZM44 41 q12 -12 15 -36 q-2 -29 -28 -29 q-13 1 -13 13 q1 13 14 20 q12 7 12 28 q-1 4 0 4 ZM186 32 q36 -4 52 -31 q9 -27 -18 -30 q-12 0 -14 23 q-1 5 -1 7 q-2 16 -16 28 q-3 2 -3 3 Z" /><glyph glyph-name="" unicode="&#x754c;" d="M187 207 q21 -5 32 -20 q-1 -3 -5 -6 q-4 -3 -4 -5 l0 -71 q2 -11 -24 -10 q-8 0 -6 6 l0 11 l-45 0 q10 0 12 -3 q0 -1 -3 -4 q-1 -1 -2 -2 q30 -27 91 -35 q13 -2 13 -3 q0 -1 -4 -4 q-7 -5 -11 -10 q-3 -3 -5 -9 q-3 -9 -11 -6 q-13 5 -33 15 l0 -68 q1 -12 -24 -11 q-8 0 -8 7 l0 88 q-1 6 6 5 q-11 12 -19 27 q-3 -2 -8 -7 q-14 -13 -27 -24 q12 -2 12 -6 q0 -2 -1 -4 q-2 -3 -2 -7 q3 -61 -58 -72 q-42 -10 -16 1 q50 15 43 75 q-12 -8 -35 -14 q-21 -6 -25 -5 q-4 1 12 9 q55 28 70 67 l-28 0 l0 -12 q1 -11 -20 -10 q-11 0 -10 6 l0 93 q0 10 3 11 q2 2 12 -3 q2 -1 5 -2 q8 -3 10 -4 l99 0 q2 0 6 7 q4 8 8 9 ZM180 187 l-26 0 q-14 1 -14 -11 l0 -23 l40 0 l0 34 ZM112 187 l-25 0 q-14 2 -13 -11 l0 -23 l38 0 l0 34 ZM140 148 l0 -31 l40 0 l0 31 l-40 0 ZM74 148 l0 -31 l38 0 l0 31 l-38 0 Z" /><glyph glyph-name="" unicode="&#x7565;" d="M156 202 q33 -4 23 -13 q-3 -3 -4 -5 q-2 -4 -4 -10 q-2 -6 -4 -9 l23 0 q4 13 10 14 q27 -6 32 -22 q0 -2 -4 -4 q-4 -1 -6 -5 q-16 -31 -29 -45 q21 -12 51 -18 q6 -1 2 -4 q-1 -2 -2 -3 q-6 -7 -10 -22 q0 -9 -29 7 q23 -11 23 -17 q0 -2 -4 -6 q-3 -2 -3 -3 l0 -56 q3 -14 -13 -14 q-15 -5 -13 6 l0 17 l-35 0 l0 -17 q2 -7 -15 -9 q-13 -2 -12 6 l0 92 q-9 -5 -19 -7 l0 -42 q2 -10 -13 -12 q-10 -3 -9 7 l0 17 l-47 0 l0 -15 q2 -11 -14 -14 q-10 -3 -9 6 l0 168 q0 7 1 7 q1 2 7 0 q2 0 7 -2 q8 -3 13 -3 l36 0 q0 0 2 3 q4 7 7 8 q23 -5 27 -19 q0 -2 -4 -5 q-4 -3 -4 -5 l0 -53 q22 33 31 92 q0 12 11 9 ZM52 168 q-8 2 -7 -13 l0 -54 l13 0 l0 67 l-6 0 ZM83 168 q-7 1 -6 -10 l0 -57 l15 0 l0 67 l-9 0 ZM194 160 l-29 0 q-3 -7 -9 -18 q8 -15 19 -25 q9 13 19 43 ZM152 135 q-21 -28 -38 -40 l0 -35 q28 14 50 41 l-12 34 ZM77 96 l0 -66 l15 0 l0 66 l-15 0 ZM45 96 l0 -66 l13 0 l0 66 l-13 0 ZM178 87 q-24 -17 -40 -23 q1 -1 4 -2 q18 -10 25 -9 l24 0 q1 0 3 3 q5 9 9 8 q-16 12 -25 23 ZM167 48 q-8 1 -7 -10 l0 -44 l35 0 l0 54 l-28 0 Z" /><glyph glyph-name="" unicode="&#x76f8;" d="M96 72 q-6 2 -8 16 q-2 17 -9 22 l0 -126 q0 -10 -22 -10 q-7 -1 -7 8 l0 98 q-14 -21 -30 -36 q-16 -14 -8 1 q1 1 1 1 q24 43 36 101 l-28 0 q-9 1 -5 4 l34 0 l0 48 q-1 12 7 10 q29 0 30 -5 q0 -2 -4 -4 q-4 -3 -4 -5 l0 -44 l3 0 q1 0 5 6 q7 10 9 10 q3 0 11 -10 q3 -3 4 -4 q3 -3 2 -4 q-1 -2 -6 -2 l-28 0 l0 -28 q33 -9 38 -27 q4 -24 -21 -20 ZM151 161 l0 -35 l45 0 l0 45 l-33 0 q-13 1 -12 -10 ZM151 121 l0 -44 l45 0 l0 44 l-45 0 ZM151 72 l0 -52 l45 0 l0 52 l-45 0 ZM210 -21 q-16 -4 -14 14 l0 23 l-45 0 l0 -18 q3 -22 -18 -20 q-12 -4 -11 20 l0 181 q0 14 16 6 q7 -4 22 -9 l31 0 q1 0 5 6 q6 8 9 8 q26 -6 33 -22 q0 -2 -6 -7 q-5 -4 -5 -7 l0 -155 q3 -21 -17 -20 Z" /><glyph glyph-name="" unicode="&#x786e;" d="M151 205 q33 -6 31 -11 q0 -1 -4 -4 q-9 -7 -16 -17 l21 0 q1 0 4 5 q5 8 8 9 q23 -7 35 -27 q-1 -2 -7 -3 q-23 -3 -44 -24 l24 0 q13 18 14 14 q20 -7 29 -22 q1 -2 -3 -3 q-4 -2 -4 -3 l0 -120 q-6 -33 -36 -27 q-3 2 -3 7 q0 11 -10 15 q-33 -11 -28 4 l0 53 l-17 0 q-7 -58 -75 -80 q-3 -1 -3 0 q0 2 3 4 q46 26 47 72 q1 17 1 81 q-1 0 -2 -2 q-8 -5 -11 -7 q8 -6 7 -9 q0 -2 -4 -6 q-3 -2 -3 -3 l0 -79 q1 -7 -17 -9 q-13 -3 -11 6 l0 11 l-17 0 l0 -25 q2 -9 -14 -11 q-14 -5 -13 6 l0 80 q-7 -9 -19 -18 q-3 -3 -3 -2 q-1 1 3 7 q18 30 27 65 q5 19 6 40 l-29 0 q-7 2 -4 5 l68 0 q13 19 17 19 q7 0 25 -18 q3 -2 1 -4 q-2 -2 -7 -2 l-24 0 q-14 0 -17 -11 q-2 -7 -13 -35 q-2 -6 -3 -9 l10 0 q1 0 4 5 q5 6 7 7 q4 1 15 -5 q2 -1 4 -2 q30 37 38 71 q2 17 12 12 ZM184 168 l-25 0 q-10 -12 -27 -28 q11 -3 18 -7 l21 0 q10 22 13 35 ZM156 129 q-12 1 -10 -11 l0 -24 l16 0 l0 35 l-6 0 ZM198 129 q-9 2 -8 -13 l0 -22 l19 0 l0 35 l-11 0 ZM70 113 q-12 2 -10 -13 l0 -65 l17 0 l0 78 l-7 0 ZM162 89 l-16 0 l0 -34 l16 0 l0 34 ZM190 89 l0 -34 l19 0 l0 34 l-19 0 ZM190 51 l0 -51 q22 -3 19 9 l0 42 l-19 0 Z" /><glyph glyph-name="" unicode="&#x7a7a;" d="M102 203 q-6 5 14 2 q17 -2 24 -7 q16 -17 -3 -31 l58 0 q2 0 5 6 q4 6 7 7 q36 -16 39 -33 q-1 -3 -13 -4 q-26 -2 -36 -17 q20 -9 20 -24 q2 -18 -20 -24 q11 -9 14 -13 q3 -4 -8 -4 l-55 0 q-8 1 -7 -9 l0 -62 l52 0 q2 0 10 12 q7 11 9 11 q4 0 23 -17 q9 -10 4 -10 l-211 0 q-4 0 -6 2 q-1 2 2 2 l86 0 l0 71 l-57 0 q-4 0 -6 2 q-1 2 2 2 l117 0 q0 0 5 8 q9 13 10 13 q1 1 5 -2 q1 -1 2 -1 q-3 1 -5 9 q-10 27 -43 46 q-18 14 53 -9 l7 33 l-146 0 q4 -24 -5 -35 q-11 -11 -25 -6 q-11 7 -5 21 q1 3 7 6 q14 10 15 28 q2 7 11 -9 l67 0 q-5 3 -6 13 q0 16 -11 23 ZM99 141 q45 -17 17 -23 q-9 -3 -12 -5 q-58 -38 -75 -36 q30 18 49 49 q2 3 5 8 q5 12 16 7 Z" /><glyph glyph-name="" unicode="&#x7bad;" d="M102 101 q22 -8 30 -21 q0 -3 -4 -5 q-4 -1 -4 -3 l0 -72 q-3 -29 -31 -25 q-2 0 -3 6 q-1 10 -7 13 q-8 3 -7 4 q0 2 8 1 q15 -2 13 9 l0 25 l-31 0 l0 -49 q3 -11 -18 -11 q-11 -2 -10 4 l0 115 q-1 8 12 2 q11 -5 16 -4 l26 0 q2 -1 5 5 q3 6 5 6 ZM73 85 q-7 1 -7 -5 l0 -15 l31 0 l0 20 l-24 0 ZM97 60 l-31 0 l0 -22 l31 0 l0 22 ZM180 134 q0 -3 -10 -7 q-14 -6 -20 -13 l51 0 q3 0 9 12 q6 11 8 11 q3 0 20 -16 q6 -5 7 -6 q2 -2 2 -4 q-1 -2 -4 -2 l-226 0 q-6 0 -8 2 q-1 2 4 3 l72 0 q-4 1 -4 8 q0 13 -10 20 q-6 3 -2 4 q4 1 13 -1 q-6 3 -5 13 q2 10 -4 17 l-7 0 q-37 -40 -52 -44 q25 36 33 71 q0 1 0 2 q-1 7 11 4 q39 -6 25 -14 q-3 -2 -4 -3 q0 -1 -1 -2 q-5 -6 -9 -9 l36 0 q1 0 4 6 q5 9 7 9 q3 0 15 -9 q8 -7 10 -7 q2 6 4 14 q1 5 2 7 q0 2 1 4 q0 7 8 5 q37 -6 27 -12 q-3 -2 -4 -3 q-6 -7 -12 -15 l34 0 q1 0 7 9 q6 9 8 10 q9 -2 23 -17 q4 -4 3 -5 q-2 -2 -9 -2 l-52 0 q21 -10 18 -24 q-2 -11 -15 -12 q-13 1 -12 12 q0 0 0 1 q3 15 -3 23 l-5 0 q-40 -52 -46 -40 q12 19 22 41 l-57 0 q32 -14 16 -33 q23 -15 2 -28 l32 0 q4 7 9 22 q5 13 6 14 q21 -3 32 -16 ZM194 103 q23 -3 18 -11 q-1 -2 -1 -3 l0 -100 q1 -17 -29 -18 q-2 0 -6 6 q-7 11 -16 12 q-9 1 -10 2 q1 2 10 2 q24 0 23 11 l0 93 q-1 8 11 6 ZM140 85 q-2 11 13 8 q20 -2 14 -10 q-2 -2 -2 -3 l0 -59 q2 -9 -15 -9 q-10 0 -10 6 l0 67 Z" /><glyph glyph-name="" unicode="&#x7cfb;" d="M178 206 q2 1 6 2 q11 10 29 -9 q31 -28 1 -21 q-13 2 -20 2 q-5 0 -18 -1 q-34 -2 -43 -2 q12 -7 -4 -14 q-26 -11 -45 -25 l57 -1 q18 15 28 26 q7 8 15 1 q32 -24 14 -26 q-4 0 -5 -1 q-56 -31 -113 -54 l109 0 q-6 15 -19 26 q31 -1 49 -24 q8 -18 -1 -28 q-14 -12 -25 -1 q-1 2 -1 9 q-1 6 -1 9 l-43 -7 l0 -66 q-1 -25 -39 -26 q-3 0 -3 5 q-2 15 -24 22 q-7 2 6 2 q18 0 23 2 q5 2 5 12 l0 45 l-47 -8 q39 -22 21 -26 q-5 -1 -7 -2 q-49 -35 -66 -31 q23 19 48 58 q-5 -1 -11 -3 q-6 -3 -10 -2 q-3 2 -7 28 q-2 7 8 6 q9 -1 13 2 q20 10 70 43 q-39 -6 -59 -16 q-5 -2 -7 -2 q-4 3 -6 21 q-1 11 6 11 q4 1 7 3 q17 14 27 30 q-3 0 -12 -1 q-35 -2 -40 -2 q-14 0 -15 2 q-1 1 11 3 q106 18 138 29 ZM165 46 q-6 3 9 2 q46 -7 55 -28 q4 -15 -9 -25 q-13 -7 -23 5 q-1 2 -3 9 q-8 29 -29 37 Z" /><glyph glyph-name="" unicode="&#x7ea7;" d="M62 208 q21 -4 38 -20 q0 -2 -6 -5 q-9 -5 -14 -12 q-19 -21 -31 -39 l30 -1 q4 8 8 19 q4 12 6 12 q30 -12 33 -23 q-1 -3 -6 -5 q-7 -4 -13 -10 q-9 -10 -30 -33 q-9 -9 -12 -13 q14 1 45 2 q12 1 12 -1 q0 -1 -12 -6 q-38 -14 -62 -26 q-6 -4 -8 -4 q-11 7 -13 33 q1 2 6 1 q10 0 16 4 q7 4 23 36 q-16 -4 -33 -12 q-6 -3 -7 -3 q-7 9 -11 29 q1 1 5 2 q9 1 14 10 q13 28 18 55 q2 9 4 10 ZM110 36 q-33 -17 -63 -39 q-10 -7 -12 -7 q-9 5 -16 31 q1 2 16 4 q35 7 72 17 q7 2 9 0 q0 -2 -6 -6 ZM196 195 q17 -3 30 -21 q0 -2 -5 -4 q-7 -3 -8 -7 q-13 -35 -19 -54 l4 0 q1 0 4 5 q5 6 7 7 q21 -6 31 -22 q-1 -3 -7 -6 q-5 -2 -5 -4 q-13 -36 -27 -57 q17 -23 39 -30 q6 -3 1 -6 q-5 -3 -7 -5 q-5 -5 -11 -13 q-5 -11 -15 -2 q-18 18 -26 34 q-39 -33 -85 -42 q-14 -2 -5 2 q51 20 80 59 q-7 22 -15 70 q-8 -68 -45 -100 q-33 -28 -43 -25 q36 28 51 61 q13 30 16 142 l-20 0 q-3 0 -4 3 q-2 2 1 2 l69 0 q2 0 6 6 q4 6 8 7 ZM190 177 l-17 0 q-9 1 -8 -10 q-1 -8 -2 -23 q-2 -15 -3 -23 l3 -11 q1 1 6 6 q3 3 4 4 l17 57 ZM165 106 q9 -35 21 -53 q13 23 16 52 l-9 0 q-1 0 -3 -3 q-1 -4 -3 -5 q-7 -1 -22 9 Z" /><glyph glyph-name="" unicode="&#x8054;" d="M109 203 q4 0 17 -10 q2 -2 3 -3 q5 -5 4 -7 q-1 -2 -9 -2 l-8 0 q-9 2 -8 -8 l0 -92 l52 0 q1 1 1 49 l-38 0 q-4 0 -5 2 q-2 3 1 3 l61 0 q12 34 18 58 q1 7 2 8 q21 2 36 -13 q-1 -2 -5 -5 q-19 -14 -43 -48 l14 0 q0 0 3 4 q9 15 12 14 q6 0 20 -14 q7 -6 5 -8 q0 -1 -9 -1 l-32 0 q-13 1 -12 -10 q0 -20 -2 -39 l20 0 q0 0 4 6 q9 13 11 13 q4 0 17 -11 q3 -3 4 -4 q6 -5 5 -6 q0 -2 -7 -2 l-49 0 q3 -45 51 -79 q6 -4 6 -5 q0 -1 -2 -1 q-8 -3 -17 -11 q-2 -2 -5 -6 q-6 -11 -14 2 q-23 30 -25 89 q-17 -78 -82 -94 q0 0 2 2 q49 34 54 103 l-52 0 l0 -27 q6 1 16 2 q5 1 5 1 q0 -1 -8 -5 q-8 -5 -13 -8 l0 -54 q1 -7 -17 -12 q-10 -4 -10 8 l0 46 q-26 -10 -49 -24 q-9 -5 -11 -5 q-9 10 -12 32 q2 2 11 3 q6 0 11 1 l0 146 l-13 0 q-5 0 -6 3 q-1 2 4 2 l79 0 q1 0 7 9 q6 8 7 8 ZM135 197 q33 -10 40 -32 q3 -20 -15 -24 q-13 0 -13 20 q0 3 0 4 q1 17 -10 29 q-2 2 -2 3 ZM69 181 q-12 1 -11 -12 l0 -34 l23 0 l0 46 l-12 0 ZM58 131 l0 -43 l23 0 l0 43 l-23 0 ZM58 83 l0 -43 l23 4 l0 39 l-23 0 Z" /><glyph glyph-name="" unicode="&#x822a;" d="M183 128 q19 -7 30 -23 q0 -2 -5 -6 q-5 -3 -5 -6 l0 -81 q-1 -11 11 -10 q11 0 16 19 q3 10 4 10 q2 1 2 -8 q-1 -14 9 -23 q5 -5 4 -9 q-1 -19 -38 -18 q-41 -4 -35 30 l0 106 l-13 0 q-6 2 -5 -15 q0 -61 -14 -84 q-23 -32 -45 -33 q33 28 33 74 l0 65 q0 7 2 8 q1 1 8 -3 q1 -1 3 -2 q6 -3 14 -5 l11 0 q3 0 7 8 q4 6 6 6 ZM150 201 q28 -2 35 -17 q4 -26 -22 -25 q-8 1 -8 14 q-1 15 -7 22 q-1 1 -3 3 q-7 4 5 3 ZM214 170 q4 0 17 -11 q3 -3 4 -4 q6 -4 4 -7 q-2 -2 -10 -2 l-113 0 q-5 0 -6 2 q-1 2 4 2 l82 0 q1 0 6 7 q9 13 12 13 ZM52 193 q-1 14 7 12 q28 -1 29 -6 q0 -3 -5 -6 q-6 -5 -9 -9 q-1 -1 -2 -2 q-10 -13 -11 -16 l17 0 q1 0 4 5 q6 8 8 8 q18 -7 26 -20 q0 -1 -4 -5 q-4 -3 -4 -5 l0 -132 q3 -44 -27 -42 q-7 0 -9 8 q-2 13 -14 16 q0 0 -1 0 q-12 4 4 4 q13 0 19 3 q4 3 4 14 l0 26 q-10 -17 -23 -7 q-2 3 -1 11 q1 16 -8 24 q-1 -58 -32 -91 q-6 -6 -8 -7 q-2 0 1 6 q15 29 16 106 l-17 0 q-3 0 -5 2 q-2 3 1 3 l21 0 q0 27 -2 69 q-1 13 7 10 q11 -2 18 -6 q2 18 0 27 ZM53 150 q23 -8 31 -21 l0 33 l-21 0 q-11 1 -10 -12 ZM53 144 q0 -22 -1 -51 l32 0 l0 22 q-10 -15 -19 -9 q-5 4 -5 16 q0 15 -7 22 ZM52 88 q0 -4 0 -9 q24 -6 32 -19 l0 28 l-32 0 Z" /><glyph glyph-name="" unicode="&#x8230;" d="M65 203 q24 0 25 -6 q0 -1 -4 -5 q-3 -2 -4 -3 q-14 -13 -19 -24 l15 0 q1 0 4 4 q6 8 8 8 q18 -6 26 -19 q0 -2 -3 -4 q-3 -2 -4 -3 l0 -144 q-1 -29 -30 -30 q-7 0 -8 8 q-3 11 -13 14 q-5 1 -5 3 q0 1 5 1 q26 0 25 10 l0 32 q-8 -12 -19 -7 q-4 2 -4 16 q0 14 -5 15 q0 -58 -37 -93 q-6 -6 -8 -6 q-1 1 4 8 q20 26 17 110 l-18 0 q-3 0 -6 2 q-1 2 2 2 l22 0 l0 69 q0 9 3 9 q3 1 17 -5 l5 0 q0 15 0 31 q-1 6 1 7 q1 1 8 0 ZM203 195 q21 -6 30 -19 q0 -3 -3 -5 q-4 -3 -5 -6 l0 -98 q2 -14 -14 -14 q-1 0 -2 0 q-8 -2 -12 0 l0 -34 q-1 -18 11 -15 q15 -3 21 31 q2 8 3 9 q2 -1 1 -9 q0 -20 10 -28 q5 -3 5 -8 q1 -14 -19 -18 q-18 -4 -42 -1 q-15 2 -15 28 l0 37 q-14 -42 -70 -72 q-10 -5 -10 -4 q-1 1 7 9 q39 35 49 67 q12 32 10 107 q0 10 7 10 q1 0 2 0 q20 1 23 -4 q0 -2 -3 -5 q-2 -3 -2 -4 q-1 -49 -5 -70 q12 0 17 -2 l0 101 l-39 0 q-8 0 -8 -9 l0 -109 q1 -10 -18 -12 q-10 -2 -9 7 l0 130 q-2 11 27 -3 l39 0 q3 0 8 7 q4 6 6 6 ZM65 160 q-9 0 -9 -7 l0 -5 q20 -4 27 -21 l0 33 l-18 0 ZM56 142 l0 -50 l27 0 l0 22 q-9 -16 -21 -6 q-2 3 -2 14 q1 14 -4 20 ZM56 88 l0 -12 q22 -4 27 -17 l0 29 l-27 0 Z" /><glyph glyph-name="" unicode="&#x8258;" d="M66 201 q24 -3 23 -7 q0 -1 -5 -5 q-14 -13 -22 -26 l14 0 q1 1 2 3 q5 7 8 8 q13 -3 24 -16 q1 -2 -3 -5 q-3 -2 -3 -3 l0 -158 q-3 -16 -34 -18 q-4 0 -6 7 q-3 12 -15 15 q-6 1 -6 3 q0 2 6 2 q30 -2 29 11 l0 32 q-11 -12 -22 -4 q-1 2 -1 10 q1 14 -4 19 q-4 -53 -37 -92 q-4 -5 -5 -4 q-1 1 2 7 q18 40 18 107 l-13 0 q-5 0 -7 2 q-2 3 3 3 l17 0 q0 48 0 77 q0 7 18 -3 q5 -3 6 -3 q1 7 1 32 q-1 9 12 6 ZM78 159 l-16 0 q-9 1 -9 -13 q16 -6 25 -18 l0 31 ZM53 137 l-1 -45 l26 0 l0 21 q-10 -10 -19 -3 q-1 2 -1 8 q0 14 -5 19 ZM78 87 l-26 0 l-1 -8 q19 -8 27 -18 l0 26 ZM160 193 q0 7 12 6 q21 -2 21 -7 q0 -3 -4 -6 q-4 -2 -4 -4 l0 -12 l20 0 q1 1 1 3 q4 8 9 8 q18 -5 27 -19 q0 -3 -7 -7 l0 -57 q2 -10 -22 -13 q-7 -1 -6 7 l-22 0 l0 -23 q1 1 3 4 q2 4 7 5 q20 -2 34 -19 q0 -3 -6 -6 q-7 -4 -11 -9 q-13 -18 -23 -27 q21 -9 50 -14 q6 -1 1 -6 q-1 -1 -1 -1 q-10 -8 -16 -20 q-3 -7 -8 -4 q-27 12 -46 28 q-28 -16 -67 -28 q-14 -3 -13 -3 q-1 1 10 6 q34 18 56 39 q-16 19 -24 49 l-9 0 q-4 0 -6 2 q-2 3 2 3 l42 0 l0 24 l-21 0 l0 -5 q1 -6 -17 -6 q-8 -1 -7 10 l0 82 q0 12 18 3 q2 -2 3 -2 q2 2 5 6 q3 5 5 5 q6 1 14 -7 l0 15 ZM185 165 l0 -29 l22 0 l0 29 l-22 0 ZM139 158 l0 -20 q1 1 3 4 q3 5 6 5 q3 0 10 -7 q1 -1 2 -2 l0 28 q-1 0 -5 0 q-4 -1 -6 -1 q-10 -2 -10 -7 ZM185 131 l0 -34 l22 0 l0 34 l-22 0 ZM139 131 l0 -34 l21 0 l0 34 l-21 0 ZM138 63 q7 -19 29 -35 q11 13 21 35 l-50 0 Z" /><glyph glyph-name="" unicode="&#x884c;" d="M225 139 q10 -5 21 -16 q5 -5 3 -6 q-1 -2 -9 -2 l-24 0 q-12 2 -11 -15 l0 -99 q3 -27 -30 -29 q-14 -2 -15 8 q0 2 0 3 q-2 12 -19 16 q-3 1 -3 2 q0 1 7 1 q30 0 30 15 l0 98 l-68 0 q-4 0 -7 2 q-2 2 2 2 l106 0 q1 0 6 7 q9 13 11 13 ZM88 206 q19 -15 17 -19 q-1 -1 -5 -1 q-8 -2 -12 -5 q-3 -2 -10 -8 q-26 -20 -48 -34 q-22 -14 -6 4 q2 2 3 3 q20 23 43 56 q3 4 4 6 q4 7 14 -2 ZM93 158 q21 -11 19 -16 q0 -1 -2 -1 q-6 -2 -12 -9 q-6 -6 -15 -18 q8 -3 4 -6 q-3 -3 -3 -5 l0 -116 q0 -11 -15 -11 q-13 -1 -12 5 l0 107 q-18 -14 -33 -23 q-9 -6 -8 -3 q1 3 13 17 q22 26 48 74 q5 13 16 5 ZM208 200 q4 0 19 -12 q2 -2 3 -3 q5 -5 4 -7 q-1 -2 -8 -2 l-103 0 q-4 0 -6 3 q0 2 4 2 l72 0 q0 0 3 5 q9 14 12 14 Z" /><glyph glyph-name="" unicode="&#x8ba4;" d="M150 206 q35 -4 33 -9 q0 -2 -3 -5 q-4 -4 -5 -7 q-1 -11 -1 -33 q2 -57 19 -88 q16 -32 51 -56 q5 -2 4 -4 q0 -1 -6 -2 q-11 -2 -22 -14 q-4 -5 -6 -6 q-5 -2 -18 16 q-16 26 -23 58 q-5 23 -5 89 q-4 -59 -17 -91 q-22 -47 -75 -71 q-8 -4 -10 -4 q-1 1 6 6 q28 21 46 53 q22 42 22 151 q-1 21 10 17 ZM48 199 q37 -2 42 -23 q-1 -28 -26 -22 q-7 3 -8 18 q-1 17 -10 22 q-5 2 -5 4 q2 2 7 1 ZM56 135 q22 -7 31 -19 q0 -2 -5 -5 q-4 -3 -4 -4 l0 -62 q9 4 21 10 q4 2 6 3 q6 3 6 2 q1 -1 -3 -6 q-20 -20 -41 -52 q-8 -12 -9 -12 q-10 9 -18 32 q0 2 4 5 q5 4 5 7 l0 83 l-33 0 q-3 0 -4 3 q0 2 3 2 l29 0 q1 0 4 4 q5 8 8 9 Z" /><glyph glyph-name="" unicode="&#x8bad;" d="M202 191 q-2 13 14 9 q24 -2 14 -11 q-2 -2 -2 -2 l0 -206 q1 -11 -12 -12 q-15 -2 -14 12 l0 210 ZM153 172 q-2 11 11 8 q29 -2 16 -11 q-2 -2 -2 -2 l0 -151 q0 -12 -9 -12 q-17 -5 -16 12 l0 156 ZM109 195 q-2 11 13 7 q23 -4 16 -12 q-3 -3 -3 -5 l0 -92 q5 -88 -58 -118 q-12 -7 -14 -7 q-2 0 5 7 q44 36 41 115 l0 105 ZM42 191 q22 5 40 -12 q9 -14 -1 -26 q-16 -12 -24 0 q-2 3 -3 13 q-2 20 -12 25 ZM52 134 q21 -2 32 -18 q0 -4 -6 -7 q-5 -3 -5 -6 l0 -68 q0 -1 12 3 q25 9 17 0 q-19 -22 -36 -45 q-7 -11 -9 -10 q-13 6 -22 33 q1 3 5 5 q5 3 5 7 l0 88 l-31 0 q-4 0 -5 3 q0 2 4 2 l26 0 q3 0 7 7 q4 6 6 6 Z" /><glyph glyph-name="" unicode="&#x8bd5;" d="M41 194 q1 0 2 0 q27 -5 34 -15 q9 -15 -2 -27 q-13 -12 -25 -1 q-3 3 -3 14 q-1 15 -8 21 q-7 6 -7 7 q0 2 9 1 ZM40 -16 q-14 14 -14 22 q0 4 5 8 q4 5 4 10 l0 85 l-25 0 q-3 0 -5 2 q-1 3 2 3 l24 0 q2 0 4 5 q3 7 7 8 q15 -2 31 -16 q0 -3 -4 -7 q-5 -4 -5 -8 l0 -64 q4 2 15 7 q16 8 17 7 q2 -2 -31 -44 q-9 -12 -13 -17 q-6 -9 -12 -1 ZM162 195 q27 0 27 -5 q0 -2 -2 -4 q-1 -1 -1 -2 q34 0 36 -15 q3 -9 -5 -15 q10 -8 16 -13 q3 -3 2 -6 q-1 -2 -5 -2 l-47 0 q1 -76 14 -110 q8 -15 17 -16 q5 1 14 15 q6 10 8 9 q0 0 -1 -3 q-7 -28 0 -42 q7 -14 -1 -19 q-16 -3 -39 12 q-19 14 -29 46 q-17 -6 -71 -35 q-9 -6 -11 2 q-1 5 -6 16 q-3 10 7 10 q3 0 8 1 q9 1 15 2 l0 63 l-11 0 q-3 0 -5 2 q-2 2 1 2 l32 0 q3 0 7 8 q4 8 6 8 q4 0 15 -9 q2 -2 3 -2 q-1 12 -2 40 l-68 0 q-3 0 -4 2 q-2 2 1 2 l71 0 q0 27 -1 50 q-2 10 9 8 ZM183 179 q0 -11 0 -42 l17 0 q1 5 6 14 q-6 1 -7 5 q-1 2 -1 8 q-2 18 -15 15 ZM140 84 q-1 0 -2 0 q-6 1 -5 -5 l0 -54 l32 4 q-6 25 -9 55 l-16 0 Z" /><glyph glyph-name="" unicode="&#x8eab;" d="M124 209 q30 -2 30 -9 q0 0 -2 -1 q-4 -2 -7 -4 q-9 -6 -17 -18 l31 0 q2 0 6 6 q5 8 8 8 q22 -7 32 -23 q0 -3 -5 -7 q-4 -3 -4 -4 l0 -57 q0 0 1 1 q13 15 17 24 q7 18 19 6 q20 -14 19 -19 q-1 -2 -4 -3 q-4 0 -8 -4 q-5 -5 -16 -15 q-25 -23 -28 -27 l0 -66 q2 -28 -36 -28 q-9 0 -9 7 q-1 13 -17 18 q-6 3 -6 3 q0 1 7 1 q32 -3 30 11 l0 35 q-76 -47 -125 -47 q73 28 123 71 l-135 0 q-3 0 -5 3 q-1 2 2 2 l45 0 l0 104 q0 14 17 4 q7 -4 9 -4 l18 0 q0 0 0 25 q-2 10 10 7 ZM107 172 q-10 1 -9 -8 l0 -23 l67 0 l0 31 l-58 0 ZM98 136 l0 -29 l67 0 l0 29 l-67 0 ZM98 103 l0 -30 l67 0 l0 30 l-67 0 Z" /><glyph glyph-name="" unicode="&#x8f7d;" d="M159 209 q27 1 27 -5 q0 -3 -3 -6 q-4 -3 -4 -7 q0 -17 0 -55 l32 0 q1 0 5 6 q7 11 10 12 q6 1 22 -15 q4 -4 3 -6 q-1 -2 -7 -2 l-65 0 q0 -50 4 -62 q10 20 16 40 q3 13 11 9 q26 -9 27 -17 q0 -1 -4 -4 q-6 -3 -7 -6 q-8 -13 -22 -33 q-8 -10 -13 -17 q17 -35 35 -34 q6 2 13 23 q2 7 4 6 q1 -2 0 -10 q-3 -21 6 -35 q5 -8 3 -14 q-10 -19 -47 2 q-22 12 -35 40 q-24 -15 -44 -23 q-26 -9 -16 0 q35 23 50 42 q-11 36 -11 93 l-133 0 q-4 0 -5 3 q-1 2 3 2 l54 0 l0 32 l-39 0 q-4 0 -5 2 q-1 2 3 2 l41 0 l0 22 q-1 14 7 13 q35 2 23 -13 q-1 -2 -1 -2 l0 -20 l11 0 q1 0 3 5 q5 9 9 10 q6 -1 18 -14 q4 -5 -2 -5 q-1 0 -2 0 l-37 0 l0 -32 l52 0 q0 8 0 60 q-1 14 10 13 ZM135 99 l-65 0 l-21 -36 l23 0 l0 20 q-1 12 8 11 q31 1 21 -11 q-1 -2 -1 -2 l0 -19 q2 1 6 7 q6 7 8 7 q5 1 19 -13 q3 -3 2 -4 q-1 -1 -6 -1 l-29 0 l0 -21 q3 0 9 1 q33 5 33 2 q-11 -6 -42 -15 l0 -43 q0 -9 -16 -10 q-13 -3 -12 7 l0 39 q-26 -7 -42 -14 q-6 -2 -9 -2 q-3 0 -7 16 q-1 4 -1 5 q-2 8 16 8 q23 1 43 3 l0 24 l-20 0 q-2 -1 -4 -4 q-2 -5 -6 -5 q-7 1 -21 11 q-3 2 3 7 q5 3 5 5 l13 27 l-27 0 q-3 0 -4 3 q0 2 3 2 l30 0 l9 17 q4 10 10 7 q32 -7 17 -15 q-3 -1 -3 -1 l-5 -8 l35 0 q0 0 3 4 q6 11 9 11 q4 1 17 -12 q3 -3 4 -3 q3 -2 2 -4 q-2 -1 -7 -1 ZM193 191 q-5 7 19 2 q14 -4 17 -12 q5 -14 -8 -22 q-15 -6 -19 7 q-1 2 -1 7 q1 13 -8 18 Z" /><glyph glyph-name="" unicode="&#x8fd0;" d="M193 211 q9 -1 27 -17 q4 -4 4 -6 q-1 -2 -6 -2 l-109 0 q-4 0 -5 2 q-1 2 3 2 l70 0 q1 0 6 9 q7 12 10 12 ZM214 164 q6 1 24 -14 q4 -4 6 -5 q4 -3 4 -6 q-1 -2 -6 -2 l-80 0 q20 -6 19 -12 q0 -2 -4 -3 q-6 -1 -9 -4 q-26 -29 -43 -51 l67 2 q-6 16 -20 28 q2 11 50 -20 q10 -11 12 -20 q2 -16 -13 -24 q-16 -7 -22 7 q-1 2 -2 8 q0 8 -2 12 q-59 -11 -83 -25 q-4 -2 -5 -2 q-3 1 -11 25 q-2 8 6 9 q6 1 8 4 q19 29 28 66 l-48 0 q-3 0 -4 3 q0 2 3 2 l109 0 q0 0 5 7 q9 14 11 15 ZM34 204 q-8 7 18 1 q21 -5 26 -12 q13 -18 1 -32 q-17 -14 -26 5 q-1 2 -1 7 q-1 19 -18 31 ZM108 16 q19 -5 114 1 q15 1 23 1 q8 0 7 -1 q1 0 -5 -4 q-8 -7 -13 -20 q-3 -8 -6 -8 q-98 -3 -127 9 q-10 4 -23 20 q-10 11 -13 10 q-7 -2 -21 -24 q-7 -11 -9 -12 q-5 -2 -20 22 q-4 6 8 11 q14 5 23 12 l0 82 l-28 0 q-4 0 -5 3 q0 2 3 2 l26 0 q1 0 4 5 q4 8 7 8 q22 -2 30 -17 q0 -1 -3 -4 q-4 -3 -4 -6 l0 -68 q6 -15 32 -22 Z" /><glyph glyph-name="" unicode="&#x8fdb;" d="M172 210 q28 0 28 -5 q0 -2 -2 -4 q-3 -4 -3 -9 l0 -39 l6 0 q0 0 2 4 q8 13 11 13 q7 -2 23 -16 q3 -4 2 -5 q0 -1 -4 -1 l-40 0 l0 -53 l10 0 q1 0 6 7 q7 10 9 10 q7 -1 22 -15 q4 -3 4 -4 q0 -2 -3 -2 l-48 0 l0 -67 q2 -15 -22 -14 q-8 0 -8 7 l0 74 l-25 0 q0 -51 -52 -81 q23 -11 135 -3 q22 2 22 1 q1 -2 -6 -8 q-6 -6 -8 -9 q-1 -2 -3 -6 q-3 -9 -9 -9 q-61 0 -85 1 q-29 2 -38 5 q-9 4 -25 20 q-13 14 -18 13 q-4 0 -21 -24 q-7 -11 -8 -11 q-5 1 -16 18 q-8 10 1 12 q2 1 5 3 q23 13 22 17 l0 78 l-26 0 q-3 0 -5 2 q-1 2 2 2 l23 0 q2 0 5 6 q4 6 6 7 q21 -3 31 -18 q0 -1 -3 -4 q-4 -4 -4 -6 l0 -72 q0 -3 16 -11 q27 22 31 77 l-33 0 q-3 0 -4 2 q-2 2 1 2 l36 0 l0 53 l-27 0 q-3 0 -4 3 q-2 2 1 2 l30 0 l0 44 q-1 13 12 10 q21 -1 23 -8 q0 -1 -2 -3 q-4 -3 -4 -8 l0 -35 l24 0 l0 47 q-1 11 7 10 ZM66 183 q13 -16 0 -30 q-19 -12 -27 6 q0 1 0 4 q0 19 -14 30 q-6 5 -4 6 q1 1 12 -1 q24 -4 33 -15 ZM141 148 l-1 -53 l25 0 l0 53 l-24 0 Z" /><glyph glyph-name="" unicode="&#x9010;" d="M211 210 q8 -1 25 -17 q4 -4 3 -6 q-1 -2 -6 -2 l-47 0 q-6 0 -26 -17 q-10 -8 -16 -12 q23 -16 33 -30 q1 1 2 2 q6 7 20 27 q1 1 2 4 q5 12 20 -3 q22 -19 3 -22 q-5 0 -7 -1 q-5 -2 -13 -4 q-15 -5 -23 -9 q2 -5 4 -15 q47 -16 53 -40 q1 -28 -25 -24 q-6 2 -9 22 q-3 29 -18 35 q7 -44 -9 -70 q-11 -15 -35 -14 q-4 1 -5 7 q-1 11 -14 15 q-7 2 -7 3 q0 1 8 1 q21 1 28 10 q7 11 4 32 q-49 -33 -70 -32 q52 36 67 73 q-55 -34 -67 -31 q35 26 50 57 l-3 3 q-60 -28 -45 -15 q36 24 47 48 l-40 0 q-5 0 -7 2 q-2 2 2 2 l102 0 q2 0 12 12 q6 9 7 9 ZM32 197 q-6 7 18 1 q19 -5 25 -13 q11 -15 0 -29 q-13 -13 -26 -2 q-4 4 -3 13 q2 18 -14 30 ZM49 128 q20 -7 30 -20 q0 -2 -5 -4 q-4 -3 -4 -5 l0 -68 q7 -32 174 -19 q5 1 -2 -7 q-5 -5 -7 -8 q-1 -3 -2 -7 q-1 -12 -12 -11 q-102 -2 -125 8 q-12 5 -25 22 q-8 9 -11 9 q-8 0 -23 -23 q-8 -13 -11 -13 q-10 10 -15 29 q0 2 14 9 q17 10 17 13 l0 76 l-25 0 q-4 1 -6 3 q-1 2 2 2 l24 0 q1 0 5 6 q5 7 7 8 Z" /><glyph glyph-name="" unicode="&#x9057;" d="M239 11 q7 0 6 -1 q1 -2 -6 -6 q-4 -3 -7 -12 q-3 -10 -7 -12 q-2 -2 -28 -2 q-32 0 -63 1 q-29 0 -41 7 q-11 4 -23 19 q-9 11 -14 11 q-4 0 -16 -19 q-10 -15 -13 -15 q-10 5 -17 28 q1 1 4 3 q13 6 27 15 l0 80 l-24 0 q-3 0 -5 2 q-2 2 1 2 l23 0 q1 0 5 5 q4 7 7 8 q18 -5 29 -18 q0 -2 -4 -6 q-5 -3 -5 -6 l0 -74 q11 -9 17 -10 q57 12 57 71 q0 5 1 6 q4 3 20 2 q15 -2 16 -5 q0 -2 -3 -5 q-4 -2 -4 -4 q-1 -3 -3 -11 q-2 -7 -3 -11 l21 -4 l0 49 l-50 0 q-12 -1 -11 -11 l0 -44 q0 -8 -16 -9 q-10 -1 -10 8 l0 64 q0 6 2 8 q2 2 7 -1 q14 -6 21 -10 l50 0 q1 0 4 4 q5 7 8 8 q24 -7 31 -16 q1 -3 -4 -5 q-3 -1 -3 -2 l0 -40 q0 -5 -11 -8 q13 -7 15 -16 q4 -10 -4 -20 q4 0 11 1 q8 0 12 1 ZM152 208 q27 -4 25 -8 q0 -2 -4 -5 q-3 -1 -3 -2 l0 -11 l16 0 q1 0 3 4 q4 7 6 8 q15 -1 29 -14 q0 -2 -3 -5 q-2 -1 -2 -2 l0 -27 q1 -5 -17 -6 q-11 -1 -11 5 l0 3 l-21 0 l0 -21 l36 0 q12 17 16 16 q4 0 19 -10 q2 -2 3 -3 q4 -6 -3 -8 l-160 0 q-3 0 -4 3 q-2 2 1 2 l65 0 l0 21 l-22 0 l0 -5 q2 -5 -16 -8 q-14 -4 -12 6 l0 43 q-1 6 8 4 q2 -1 10 -3 q7 -2 10 -3 l22 0 l0 17 q-1 12 9 9 ZM170 177 l0 -25 l21 0 l0 25 l-21 0 ZM143 177 l-10 0 q-14 2 -12 -10 l0 -15 l22 0 l0 25 ZM37 196 q38 -5 38 -28 q-2 -25 -24 -20 q-7 3 -8 18 q-1 15 -7 20 q-10 9 -9 10 q0 2 10 0 ZM197 7 q-3 3 -6 13 q-6 23 -27 29 q-14 -28 -64 -40 q37 -4 97 -2 Z" /><glyph glyph-name="" unicode="&#x90e8;" d="M66 205 q22 0 31 -12 q8 -14 -6 -26 l17 0 q1 0 5 6 q8 11 10 11 q7 -2 19 -15 q3 -4 2 -5 q-1 -2 -6 -2 l-32 0 q25 -14 26 -17 q1 -2 -4 -5 q-5 -2 -8 -5 q-7 -7 -26 -33 l21 0 q2 0 6 7 q6 9 9 9 q8 -1 22 -16 l0 81 q-1 8 8 6 q10 -1 22 -7 l18 0 q1 0 4 5 q5 8 7 8 q31 -12 34 -23 q-1 -2 -5 -4 q-6 -3 -10 -7 q-22 -29 -32 -53 q0 -1 9 -7 q18 -12 23 -20 q33 -53 -17 -73 q-11 -2 -13 8 q-3 15 -20 20 l0 -51 q-1 -14 -18 -14 q-12 -2 -10 13 l0 113 l-133 0 q-3 0 -5 2 q-1 3 2 3 l70 0 q10 35 11 60 l-71 0 q-4 0 -5 3 q0 2 3 2 l50 0 q-4 4 -4 15 q0 12 -6 18 q-1 1 -4 2 q-7 4 6 3 ZM180 167 l0 -127 q30 -8 34 15 q4 23 -21 47 q-3 3 -3 3 q0 1 4 19 q10 42 12 53 l-18 0 q-9 1 -8 -10 ZM46 152 q21 -4 29 -14 q8 -13 -2 -24 q-12 -11 -21 0 q-2 3 -2 10 q0 14 -5 21 q-1 1 -4 4 q-7 4 5 3 ZM104 82 q24 -7 29 -19 q0 -1 -3 -4 q-4 -5 -4 -8 l0 -46 q0 -14 -19 -14 q-9 -1 -8 9 l0 12 l-37 0 l0 -16 q0 -12 -18 -12 q-8 0 -8 12 l0 77 q-1 8 9 5 q10 -4 19 -9 l28 0 q1 0 4 4 q5 9 8 9 ZM62 56 l0 -39 l37 0 l0 48 l-29 0 q-8 0 -8 -9 Z" /><glyph glyph-name="" unicode="&#x91cd;" d="M157 203 q3 1 7 2 q12 6 23 -3 q38 -24 9 -22 q-6 0 -7 0 q-6 -1 -24 -2 q-15 -1 -24 -2 l0 -23 l64 0 q2 0 9 11 q7 11 9 11 q4 0 23 -17 q8 -8 1 -9 l-106 0 l0 -24 l31 0 q2 0 7 6 q6 8 9 8 q23 -9 28 -25 q-1 -1 -4 -3 q-3 -1 -3 -3 l0 -56 q0 -6 -11 -10 q15 -9 24 -19 q3 -5 -1 -7 l-80 0 l0 -31 l56 0 q1 0 7 10 q7 13 9 13 q4 0 18 -12 q3 -3 4 -4 q6 -5 7 -8 q1 -3 -4 -3 l-212 0 q-3 0 -5 3 q-1 1 3 1 l89 0 l0 31 l-73 0 q-4 0 -6 3 q-1 2 3 2 l76 0 l0 31 l-37 0 q1 -12 -10 -14 q-19 -6 -17 6 l0 84 q0 5 3 6 q2 1 8 -2 q1 -1 3 -2 q11 -5 15 -5 l35 0 l0 24 l-98 0 q-4 0 -6 2 q-1 2 3 2 l101 0 l0 21 q-80 -3 -66 0 q59 12 110 29 ZM141 120 l0 -30 l37 0 l0 30 l-37 0 ZM113 120 l-26 0 q-13 1 -12 -9 l0 -21 l38 0 l0 30 ZM141 86 l0 -30 l37 0 l0 30 l-37 0 ZM113 86 l-38 0 l0 -30 l38 0 l0 30 ZM178 52 l-37 0 l0 -31 l40 0 l10 20 q-13 -1 -13 11 Z" /><glyph glyph-name="" unicode="&#x957f;" d="M76 209 q3 0 8 -1 q14 -1 14 -4 q0 -2 -2 -5 q-3 -6 -3 -12 l0 -83 l100 0 q1 0 7 9 q8 13 11 13 q6 0 22 -13 q2 -2 3 -3 q5 -5 5 -7 q-1 -3 -5 -3 l-104 0 q9 -39 43 -65 q19 -13 56 -25 q9 -2 9 -3 q0 -1 -4 -2 q-17 -5 -26 -17 q-10 -19 -22 -5 q-58 42 -62 117 l-33 0 l0 -82 q5 2 16 6 q10 3 15 5 q8 4 9 2 q1 -1 -6 -7 q-14 -14 -42 -44 q-6 -8 -8 -7 q-2 -1 -10 10 q-7 12 -3 5 q-4 7 -6 9 q-2 6 1 10 q4 4 4 15 l0 78 l-45 0 q-4 0 -7 2 q-2 2 2 2 l50 0 l0 96 q-1 11 13 9 ZM188 199 q27 -19 26 -25 q0 -1 -5 -2 q-10 -2 -17 -6 q-3 -2 -29 -18 q-28 -16 -34 -20 q-23 -12 -27 -13 q-4 0 10 11 q37 36 59 73 q4 11 17 0 Z" /><glyph glyph-name="" unicode="&#x95f4;" d="M101 188 q12 -14 0 -27 q-16 -13 -26 2 q-2 3 -2 10 q-1 18 -14 27 q-3 6 21 1 q15 -5 21 -13 ZM147 151 q22 -7 32 -22 q-1 -2 -5 -4 q-3 -2 -3 -3 l0 -91 q3 -8 -11 -10 q-19 -3 -18 6 l0 11 l-35 0 l0 -9 q2 -9 -13 -11 q-14 -1 -14 9 l0 110 q-1 9 9 6 q2 0 8 -3 q8 -4 10 -4 l29 0 q1 0 4 6 q5 8 7 9 ZM113 132 q-7 2 -6 -12 l0 -29 l35 0 l0 41 l-29 0 ZM107 87 l0 -45 l35 0 l0 45 l-35 0 ZM206 198 q26 -9 33 -21 q0 -2 -6 -6 q-4 -4 -4 -5 l0 -163 q2 -32 -30 -32 q-9 -1 -11 8 q-3 14 -18 20 q-4 2 -3 3 q0 1 5 0 q14 0 19 1 q11 -2 10 16 l0 159 l-80 0 q-3 0 -5 3 q-1 2 2 2 l75 0 q1 0 4 5 q6 10 9 10 ZM54 -16 q0 -13 -17 -13 q-10 -1 -9 8 l0 185 q0 10 6 9 q26 -2 26 -7 q0 -1 -2 -4 q-4 -4 -4 -8 l0 -170 Z" /><glyph glyph-name="" unicode="&#x9662;" d="M55 185 q-11 1 -10 -7 l0 -124 q1 0 2 0 q11 -3 17 2 q11 13 6 38 q-4 12 -13 21 q-2 2 -2 3 q5 41 11 67 l-11 0 ZM28 197 q3 -1 9 -3 q7 -3 12 -5 l13 0 q1 0 3 4 q3 8 7 9 q23 -6 33 -22 q-1 -3 -5 -4 q-6 -1 -8 -4 q-29 -47 -30 -52 q0 -1 6 -5 q37 -26 28 -65 q-8 -23 -36 -23 q-3 1 -3 7 q0 13 -12 17 l0 -67 q1 -7 -18 -8 q-11 -3 -10 6 l0 207 q0 8 2 9 q2 2 9 -1 ZM184 195 q3 -18 -13 -23 l31 0 q1 0 4 4 q5 8 8 8 q26 -11 31 -28 q-1 -3 -11 -3 q-21 0 -28 -11 q10 -7 13 -11 q0 0 1 -1 q6 -7 -2 -6 l-98 0 q-4 0 -5 2 q-1 3 2 3 l66 0 q0 0 4 6 q7 13 9 13 q2 0 5 -2 q-1 0 1 -1 q2 12 3 23 l-84 0 q6 -26 -1 -33 q-11 -10 -21 -5 q-12 8 -6 19 q2 3 6 7 q9 9 9 21 q0 7 2 6 q2 -1 8 -11 l36 0 q-3 4 -3 14 q0 17 -16 23 q-6 8 29 2 q18 -5 20 -16 ZM219 111 q8 -2 26 -19 q3 -3 2 -5 q-1 -2 -6 -2 l-39 0 q-10 0 -10 -9 q0 -1 0 -2 l0 -54 q-1 -19 13 -18 q16 -1 22 31 q2 8 3 10 q2 1 1 -6 q-2 -23 13 -33 q6 -4 6 -7 q-2 -15 -25 -20 q-6 -1 -19 -2 q-16 0 -19 1 q-25 -1 -23 29 l0 80 l-10 0 q-5 -85 -67 -106 q-16 -6 -29 -7 q-8 0 6 6 q61 17 58 107 l-23 0 q-3 0 -4 2 q-1 2 2 2 l103 0 q2 0 8 9 q8 13 11 13 Z" /><glyph glyph-name="" unicode="&#x96c6;" d="M71 209 q26 -2 35 -11 q0 -3 -4 -4 q-5 -2 -8 -7 q-1 -2 -4 -6 q-4 -6 -6 -9 l49 0 q-5 5 -5 17 q-1 13 -7 17 q-6 6 14 2 q16 -3 21 -9 q8 -16 -7 -27 l41 0 q3 0 10 12 q5 8 7 8 q12 -7 26 -20 q1 -5 -5 -5 l-73 0 l0 -26 l25 0 q2 0 8 11 q5 8 6 8 q7 -1 22 -14 q8 -8 1 -10 l-62 0 l0 -26 l23 0 q2 1 8 9 q5 9 7 9 q4 0 19 -10 q2 -2 3 -3 q5 -3 5 -6 q1 -3 -4 -3 l-61 0 l0 -25 l40 0 q1 0 6 7 q7 11 9 12 q9 -3 25 -19 q2 -2 1 -4 q-1 -1 -6 -1 l-80 0 l0 -27 l60 0 q3 0 10 12 q5 9 7 9 q10 -1 25 -19 q2 -6 -7 -6 l-89 0 q28 -31 88 -33 q8 1 -1 -9 q-7 -6 -9 -10 q-1 -2 -2 -5 q-3 -7 -6 -6 q-52 15 -76 56 l0 -54 q0 -13 -14 -14 q-16 -3 -16 7 l0 55 q-32 -34 -86 -49 q-16 -4 -3 3 q44 25 66 59 l-73 0 q-4 0 -5 2 q0 2 4 2 l97 0 l0 27 l-37 0 l0 -8 q3 -8 -11 -8 q-16 -2 -14 6 l0 78 q-39 -30 -36 -21 q22 26 39 64 q1 3 3 8 q3 12 7 14 ZM128 167 l-29 0 q-18 1 -16 -6 l0 -20 l45 0 l0 26 ZM83 136 l0 -26 l45 0 l0 26 l-45 0 ZM128 106 l-45 0 l0 -25 l45 0 l0 25 Z" /><glyph glyph-name="" unicode="&#x975e;" d="M154 206 q19 -1 14 -8 q-3 -5 -3 -7 l0 -37 l33 0 q1 0 7 8 q7 12 9 12 q5 0 22 -15 q5 -6 4 -7 q0 -2 -7 -2 l-68 0 l0 -53 l22 0 q1 0 6 9 q6 11 8 11 q4 1 24 -16 q5 -4 5 -6 q-1 -2 -7 -2 l-58 0 l0 -51 l34 0 q1 0 7 9 q7 12 9 12 q3 0 19 -13 q3 -2 4 -3 q6 -5 5 -8 q-1 -2 -9 -2 l-69 0 l0 -57 q1 -10 -14 -12 q-15 -4 -14 8 l0 222 q0 1 0 2 q-5 9 17 6 ZM87 199 q-2 9 17 6 q19 -1 13 -12 q-2 -3 -2 -4 l0 -205 q2 -10 -15 -13 q-14 -3 -13 6 l0 60 l-67 0 q-4 0 -6 3 q-1 2 2 2 l71 0 l0 50 l-50 0 q-9 2 -5 4 l55 0 l0 52 l-60 0 q-9 2 -5 5 l65 0 l0 46 Z" /><glyph glyph-name="" unicode="&#x9996;" d="M159 204 q0 0 5 -2 q29 -8 27 -13 q0 -1 -5 -3 q-8 -3 -11 -6 q-23 -23 -28 -28 l55 0 q10 21 16 23 q9 -1 25 -19 q5 -5 5 -6 q0 -2 -5 -2 l-93 0 q-5 1 -13 -10 q-2 -3 -6 -10 q-6 -11 -9 -15 l42 0 q2 0 5 6 q4 7 6 8 q20 -2 34 -22 q0 -3 -5 -7 q-3 -3 -3 -4 l0 -105 q2 -16 -20 -15 q-12 -1 -11 4 l0 19 l-77 0 l0 -12 q2 -15 -20 -14 q-12 -2 -10 7 l0 136 q0 9 2 10 q1 1 9 -2 q8 -2 21 -9 l16 0 q1 8 0 6 q2 24 2 29 l-87 0 q-4 0 -6 2 q-3 2 1 2 l121 0 q4 16 8 44 q-1 11 9 8 ZM122 179 q-4 -29 -29 -15 q-2 2 -3 12 q-1 10 -3 13 q-1 1 -4 3 q-7 5 3 5 q31 0 36 -18 ZM102 108 q-11 1 -9 -11 l0 -19 l77 0 l0 30 l-68 0 ZM93 73 l0 -32 l77 0 l0 32 l-77 0 ZM93 37 l0 -35 l77 0 l0 35 l-77 0 Z" /><glyph glyph-name="" unicode="&#x9a71;" d="M104 -16 q-19 -16 -36 -13 q-1 1 -2 4 q-2 13 -19 21 q-6 3 8 3 q18 0 22 3 q9 4 11 45 q-31 -12 -51 -26 q-6 -5 -8 -3 q-3 1 -11 24 q-2 7 18 7 q28 1 52 3 l1 28 l-28 0 q-2 0 -6 -4 q-5 -6 -9 -5 q-6 0 -20 12 q-5 5 3 9 q4 2 4 3 q1 13 3 31 q1 18 2 27 q-2 11 8 8 q27 -1 21 -10 q-3 -3 -3 -5 q0 -8 -3 -23 q-3 -22 -4 -39 l19 0 l8 93 l-52 0 q-4 0 -5 2 q-2 3 1 3 l50 0 q2 0 5 5 q3 5 6 6 q21 -4 28 -19 q0 -1 -3 -5 q-4 -3 -4 -5 l-8 -68 q22 -12 22 -18 q0 -3 -5 -6 q-3 -1 -3 -2 q-1 -69 -12 -86 ZM215 201 q5 0 22 -13 q3 -3 5 -4 q5 -5 4 -6 q0 -1 -8 -1 l-75 0 q-11 2 -10 -10 l0 -17 q18 -16 38 -36 q5 21 6 39 q1 7 2 8 q26 -3 36 -12 q0 -2 -4 -6 q-5 -4 -7 -8 q-8 -24 -16 -42 q18 -25 23 -45 q5 -31 -25 -27 q-5 3 -5 19 q-1 18 -5 27 q-15 -24 -43 -49 l0 -25 l57 0 q12 18 17 19 q5 -1 17 -15 q1 -2 2 -3 q6 -6 -10 -6 l-76 0 q-1 0 -4 -5 q-4 -7 -6 -8 q-19 2 -29 13 q0 2 3 6 q4 4 4 7 l0 183 q0 5 2 6 q3 1 8 -1 q8 -3 16 -8 l46 0 q1 2 3 5 q9 16 12 15 ZM153 145 l0 -120 q21 25 34 67 q-14 30 -34 53 Z" /><glyph glyph-name="" unicode="&#x9a8c;" d="M105 5 q-8 -32 -44 -29 q-2 0 -4 6 q-4 12 -15 17 q-5 2 -4 3 q2 1 11 0 q28 -2 30 12 q1 11 2 26 q1 7 1 11 q-27 -10 -50 -23 q-9 -4 -11 -4 q-5 2 -9 18 q-2 11 3 11 q15 1 67 2 q2 28 2 28 l-27 0 q-1 0 -4 -3 q-2 -5 -5 -6 q-17 4 -23 13 q0 2 4 6 q4 4 4 6 l7 54 q0 1 0 3 q0 8 7 6 q25 -5 19 -14 q-3 -4 -3 -6 l-7 -54 l17 0 l11 95 l-56 0 q-4 0 -6 2 q-2 3 2 3 l54 0 q2 0 5 6 q4 6 5 6 q18 -3 29 -18 q0 -3 -4 -7 q-4 -4 -5 -8 l-7 -72 q17 -10 18 -16 q0 -2 -4 -6 q-5 -5 -5 -9 q-1 -6 -1 -16 q-2 -23 -4 -43 ZM148 197 q1 13 10 8 q38 -10 27 -16 q-2 -1 -2 -2 q5 -35 67 -61 q5 -2 -1 -5 q0 0 -1 -1 q-6 -4 -12 -13 q-6 -12 -14 -6 q-36 27 -44 77 q-23 -45 -42 -65 l28 0 q1 0 6 5 q9 10 13 11 q4 1 14 -12 q2 -1 2 -2 q3 -3 2 -5 q-1 -2 -5 -2 l-64 0 q-2 -1 -5 -3 q-6 -5 -11 -7 q-1 -1 -3 -2 q-12 -7 -3 4 q24 35 38 97 ZM150 82 q34 -13 41 -44 q-1 -18 -16 -21 q-17 0 -15 17 q0 1 1 3 q9 22 -11 45 ZM120 66 q22 -9 34 -36 q3 -18 -14 -25 q-16 -4 -15 15 q0 0 0 1 q9 24 -5 45 ZM106 -14 l74 0 q12 33 19 96 q1 9 2 10 q1 1 7 -1 q37 -13 25 -21 q-3 -2 -3 -3 q-1 -3 -5 -9 q-25 -50 -33 -72 l13 0 q2 0 9 10 q7 12 10 12 q7 1 23 -17 q5 -5 5 -7 q0 -2 -4 -2 l-139 0 q-4 0 -6 2 q-1 2 3 2 Z" /><glyph glyph-name="" unicode="&#x9ab8;" d="M156 208 q-2 4 15 2 q12 -2 20 -8 q18 -19 -6 -34 l25 0 q1 0 6 8 q7 10 9 11 q19 -11 25 -21 q0 -2 -4 -2 l-46 0 q0 0 0 -1 q1 -3 -2 -6 q-1 -1 -3 -2 q-17 -11 -42 -41 l32 -2 q3 7 7 17 q4 14 7 14 q25 -5 33 -16 q-1 -3 -5 -5 q-6 -5 -11 -12 q-48 -71 -106 -86 l0 -21 q-2 -24 -29 -26 q-3 0 -7 8 q-8 14 -18 17 l0 -17 q1 -8 -19 -6 q-7 -1 -6 7 l0 118 q-17 -17 -24 1 q0 5 5 12 q8 9 7 17 q1 16 16 -10 l0 73 q0 5 2 6 q3 2 8 -1 q3 -2 7 -4 q6 -4 9 -4 l27 0 q2 0 7 6 q4 6 6 6 q17 -7 21 -18 q0 -2 -4 -5 q-4 -3 -4 -5 l0 -47 q1 0 2 1 q2 2 4 2 q4 -1 18 -13 q2 -1 3 -2 q18 27 22 45 l-38 0 q-4 0 -6 2 q-2 2 2 2 l51 0 q-7 5 -7 16 q1 15 -9 24 ZM68 189 q-14 0 -12 -4 l0 -19 l5 0 q2 0 5 4 q4 3 5 3 q13 -5 17 -14 q0 -1 -2 -2 q-4 -3 -4 -5 l0 -29 l9 0 l0 66 l-23 0 ZM56 161 l0 -38 l9 0 l0 38 l-9 0 ZM35 119 q0 -6 -2 -9 q4 -2 10 -4 q8 -3 16 -7 l22 0 q2 0 5 5 q3 4 4 4 q5 1 17 -6 q5 15 3 17 l-75 0 ZM130 108 q-13 -2 -18 -9 q8 -5 6 -8 q0 -2 -5 -5 q-3 -2 -3 -3 l0 -54 q46 26 68 71 q-15 -4 -33 -12 q-6 -3 -7 -3 q-3 2 -7 19 q-1 3 -1 4 ZM85 94 l-24 0 q-4 1 -5 -8 l0 -12 l29 0 l0 20 ZM209 88 q24 -10 29 -20 q0 -2 -4 -4 q-8 -3 -11 -8 q-4 -6 -18 -21 q-2 -3 -3 -4 q23 -13 31 -24 q9 -13 1 -25 q-13 -14 -24 -5 q-3 4 -3 16 q1 21 -9 32 q-54 -44 -88 -43 q33 16 53 37 q23 26 40 59 q5 10 6 10 ZM56 69 l0 -20 l29 0 l0 20 l-29 0 ZM56 44 l0 -37 q29 -7 29 4 l0 33 l-29 0 Z" /></font>
</defs>
</svg>
